<svg width="596" height="275" viewBox="0 0 596 275" fill="none" xmlns="http://www.w3.org/2000/svg">
<rect x="0.392857" y="0.392857" width="595.214" height="274.214" rx="12.1786" fill="url(#paint0_linear_2262_8612)" fill-opacity="0.15"/>
<rect x="0.392857" y="0.392857" width="595.214" height="274.214" rx="12.1786" stroke="#D9D9D9" stroke-width="0.785714"/>
<g filter="url(#filter0_d_2262_8612)">
<rect x="132.357" y="91.4727" width="306.615" height="90.0525" rx="11.3314" fill="white"/>
<rect x="132.711" y="91.8268" width="305.907" height="89.3443" rx="10.9773" stroke="#66E29E" stroke-width="0.708215"/>
<rect x="153.753" y="102.805" width="70.6657" height="13.8329" rx="2.83286" fill="#00E266" fill-opacity="0.1"/>
<path d="M159.398 107.04V113.221H158.65V107.825H158.613L157.104 108.827V108.066L158.65 107.04H159.398ZM163.192 113.305C162.737 113.305 162.35 113.181 162.03 112.934C161.71 112.685 161.465 112.323 161.296 111.851C161.127 111.376 161.043 110.802 161.043 110.13C161.043 109.462 161.127 108.892 161.296 108.419C161.467 107.944 161.713 107.582 162.033 107.333C162.355 107.081 162.741 106.955 163.192 106.955C163.642 106.955 164.028 107.081 164.348 107.333C164.669 107.582 164.915 107.944 165.084 108.419C165.255 108.892 165.34 109.462 165.34 110.13C165.34 110.802 165.256 111.376 165.087 111.851C164.918 112.323 164.673 112.685 164.354 112.934C164.034 113.181 163.646 113.305 163.192 113.305ZM163.192 112.641C163.642 112.641 163.992 112.424 164.242 111.989C164.491 111.555 164.616 110.935 164.616 110.13C164.616 109.595 164.559 109.139 164.444 108.763C164.331 108.387 164.168 108.1 163.955 107.903C163.744 107.706 163.489 107.607 163.192 107.607C162.745 107.607 162.396 107.828 162.144 108.268C161.893 108.707 161.767 109.328 161.767 110.13C161.767 110.665 161.824 111.12 161.936 111.494C162.049 111.869 162.211 112.153 162.422 112.349C162.635 112.544 162.892 112.641 163.192 112.641ZM168.503 113.305C168.049 113.305 167.661 113.181 167.341 112.934C167.021 112.685 166.777 112.323 166.608 111.851C166.439 111.376 166.354 110.802 166.354 110.13C166.354 109.462 166.439 108.892 166.608 108.419C166.779 107.944 167.024 107.582 167.344 107.333C167.666 107.081 168.053 106.955 168.503 106.955C168.954 106.955 169.339 107.081 169.659 107.333C169.981 107.582 170.227 107.944 170.396 108.419C170.567 108.892 170.652 109.462 170.652 110.13C170.652 110.802 170.568 111.376 170.399 111.851C170.23 112.323 169.985 112.685 169.665 112.934C169.345 113.181 168.958 113.305 168.503 113.305ZM168.503 112.641C168.954 112.641 169.304 112.424 169.554 111.989C169.803 111.555 169.928 110.935 169.928 110.13C169.928 109.595 169.87 109.139 169.756 108.763C169.643 108.387 169.48 108.1 169.267 107.903C169.056 107.706 168.801 107.607 168.503 107.607C168.057 107.607 167.708 107.828 167.456 108.268C167.205 108.707 167.079 109.328 167.079 110.13C167.079 110.665 167.135 111.12 167.248 111.494C167.36 111.869 167.522 112.153 167.734 112.349C167.947 112.544 168.203 112.641 168.503 112.641ZM173.622 112.134V108.151H174.298V112.134H173.622ZM171.968 110.48V109.804H175.952V110.48H171.968ZM180.153 113.221H179.369L181.638 107.04H182.411L184.68 113.221H183.896L182.049 108.018H182L180.153 113.221ZM180.443 110.806H183.606V111.47H180.443V110.806ZM185.546 114.959V108.585H186.235V109.321H186.319C186.371 109.241 186.444 109.138 186.536 109.014C186.631 108.887 186.766 108.774 186.941 108.676C187.118 108.575 187.357 108.525 187.659 108.525C188.049 108.525 188.393 108.622 188.691 108.817C188.989 109.013 189.221 109.289 189.388 109.647C189.555 110.006 189.639 110.428 189.639 110.915C189.639 111.406 189.555 111.831 189.388 112.192C189.221 112.55 188.99 112.827 188.694 113.025C188.398 113.22 188.057 113.317 187.671 113.317C187.373 113.317 187.135 113.268 186.956 113.169C186.777 113.069 186.639 112.955 186.542 112.828C186.446 112.7 186.371 112.593 186.319 112.508H186.259V114.959H185.546ZM186.247 110.903C186.247 111.253 186.298 111.562 186.401 111.829C186.503 112.095 186.653 112.303 186.85 112.454C187.047 112.603 187.289 112.677 187.575 112.677C187.872 112.677 188.121 112.599 188.32 112.442C188.521 112.283 188.672 112.07 188.773 111.802C188.875 111.533 188.927 111.233 188.927 110.903C188.927 110.577 188.876 110.283 188.776 110.022C188.677 109.758 188.527 109.55 188.326 109.397C188.127 109.242 187.876 109.165 187.575 109.165C187.285 109.165 187.041 109.238 186.844 109.385C186.647 109.53 186.498 109.733 186.398 109.995C186.297 110.254 186.247 110.557 186.247 110.903ZM190.725 114.959V108.585H191.413V109.321H191.498C191.55 109.241 191.623 109.138 191.715 109.014C191.81 108.887 191.945 108.774 192.12 108.676C192.297 108.575 192.536 108.525 192.838 108.525C193.228 108.525 193.572 108.622 193.87 108.817C194.168 109.013 194.4 109.289 194.567 109.647C194.734 110.006 194.818 110.428 194.818 110.915C194.818 111.406 194.734 111.831 194.567 112.192C194.4 112.55 194.169 112.827 193.873 113.025C193.577 113.22 193.236 113.317 192.85 113.317C192.552 113.317 192.314 113.268 192.135 113.169C191.956 113.069 191.818 112.955 191.721 112.828C191.625 112.7 191.55 112.593 191.498 112.508H191.438V114.959H190.725ZM191.425 110.903C191.425 111.253 191.477 111.562 191.579 111.829C191.682 112.095 191.832 112.303 192.029 112.454C192.226 112.603 192.468 112.677 192.753 112.677C193.051 112.677 193.3 112.599 193.499 112.442C193.7 112.283 193.851 112.07 193.951 111.802C194.054 111.533 194.105 111.233 194.105 110.903C194.105 110.577 194.055 110.283 193.954 110.022C193.856 109.758 193.706 109.55 193.505 109.397C193.306 109.242 193.055 109.165 192.753 109.165C192.464 109.165 192.22 109.238 192.023 109.385C191.826 109.53 191.677 109.733 191.576 109.995C191.476 110.254 191.425 110.557 191.425 110.903ZM196.616 107.04V113.221H195.904V107.04H196.616ZM197.921 113.221V108.585H198.633V113.221H197.921ZM198.283 107.813C198.144 107.813 198.024 107.765 197.924 107.671C197.825 107.576 197.776 107.462 197.776 107.33C197.776 107.197 197.825 107.083 197.924 106.989C198.024 106.894 198.144 106.847 198.283 106.847C198.422 106.847 198.541 106.894 198.639 106.989C198.74 107.083 198.79 107.197 198.79 107.33C198.79 107.462 198.74 107.576 198.639 107.671C198.541 107.765 198.422 107.813 198.283 107.813ZM201.821 113.317C201.386 113.317 201.012 113.215 200.698 113.009C200.384 112.804 200.143 112.522 199.974 112.161C199.805 111.801 199.72 111.39 199.72 110.927C199.72 110.456 199.807 110.041 199.98 109.681C200.155 109.318 200.398 109.036 200.71 108.833C201.024 108.627 201.39 108.525 201.809 108.525C202.135 108.525 202.428 108.585 202.69 108.706C202.952 108.827 203.166 108.996 203.333 109.213C203.5 109.43 203.603 109.684 203.644 109.973H202.931C202.877 109.762 202.756 109.575 202.569 109.412C202.384 109.247 202.135 109.165 201.821 109.165C201.543 109.165 201.3 109.237 201.09 109.382C200.883 109.525 200.721 109.727 200.605 109.988C200.49 110.248 200.433 110.553 200.433 110.903C200.433 111.261 200.489 111.573 200.602 111.838C200.716 112.104 200.877 112.31 201.084 112.457C201.294 112.604 201.539 112.677 201.821 112.677C202.006 112.677 202.174 112.645 202.325 112.581C202.476 112.517 202.603 112.424 202.708 112.303C202.813 112.183 202.887 112.038 202.931 111.869H203.644C203.603 112.142 203.504 112.389 203.345 112.608C203.188 112.825 202.98 112.998 202.72 113.127C202.463 113.254 202.163 113.317 201.821 113.317ZM206.049 113.329C205.755 113.329 205.489 113.274 205.249 113.163C205.01 113.051 204.82 112.889 204.679 112.677C204.538 112.464 204.468 112.207 204.468 111.905C204.468 111.639 204.52 111.424 204.625 111.259C204.729 111.092 204.869 110.961 205.044 110.867C205.219 110.772 205.412 110.702 205.623 110.655C205.837 110.607 206.051 110.569 206.266 110.541C206.548 110.505 206.776 110.477 206.951 110.459C207.128 110.439 207.257 110.406 207.338 110.36C207.42 110.313 207.461 110.233 207.461 110.118V110.094C207.461 109.796 207.38 109.565 207.217 109.4C207.056 109.235 206.812 109.152 206.484 109.152C206.144 109.152 205.877 109.227 205.684 109.376C205.491 109.525 205.355 109.684 205.276 109.853L204.6 109.611C204.721 109.33 204.882 109.11 205.083 108.953C205.286 108.794 205.508 108.684 205.747 108.621C205.989 108.557 206.226 108.525 206.459 108.525C206.608 108.525 206.779 108.543 206.972 108.579C207.168 108.613 207.356 108.685 207.537 108.793C207.72 108.902 207.872 109.066 207.993 109.285C208.113 109.505 208.174 109.798 208.174 110.167V113.221H207.461V112.593H207.425C207.377 112.694 207.296 112.801 207.184 112.916C207.071 113.031 206.921 113.128 206.734 113.209C206.547 113.289 206.319 113.329 206.049 113.329ZM206.158 112.69C206.439 112.69 206.677 112.634 206.87 112.524C207.065 112.413 207.212 112.27 207.31 112.095C207.411 111.92 207.461 111.736 207.461 111.543V110.891C207.431 110.927 207.365 110.96 207.262 110.99C207.162 111.019 207.045 111.044 206.912 111.066C206.781 111.086 206.654 111.104 206.529 111.12C206.406 111.134 206.307 111.146 206.23 111.156C206.045 111.181 205.872 111.22 205.711 111.274C205.552 111.326 205.423 111.406 205.325 111.513C205.228 111.617 205.18 111.76 205.18 111.941C205.18 112.189 205.271 112.376 205.454 112.502C205.64 112.627 205.874 112.69 206.158 112.69ZM210.186 110.432V113.221H209.474V108.585H210.162V109.309H210.222C210.331 109.074 210.496 108.885 210.717 108.742C210.938 108.597 211.224 108.525 211.574 108.525C211.888 108.525 212.163 108.589 212.398 108.718C212.633 108.845 212.817 109.038 212.947 109.297C213.078 109.555 213.143 109.881 213.143 110.275V113.221H212.431V110.323C212.431 109.959 212.337 109.676 212.148 109.472C211.958 109.267 211.699 109.165 211.369 109.165C211.142 109.165 210.938 109.214 210.759 109.312C210.582 109.411 210.442 109.555 210.34 109.744C210.237 109.933 210.186 110.163 210.186 110.432ZM216.461 108.585V109.189H214.059V108.585H216.461ZM214.759 107.475H215.471V111.893C215.471 112.094 215.5 112.245 215.559 112.345C215.619 112.444 215.695 112.51 215.788 112.545C215.883 112.577 215.982 112.593 216.087 112.593C216.165 112.593 216.23 112.589 216.28 112.581C216.33 112.571 216.37 112.563 216.401 112.557L216.545 113.197C216.497 113.215 216.43 113.233 216.343 113.251C216.257 113.271 216.147 113.281 216.014 113.281C215.813 113.281 215.616 113.238 215.423 113.151C215.232 113.065 215.073 112.933 214.946 112.756C214.821 112.579 214.759 112.356 214.759 112.086V107.475ZM220.733 109.623L220.093 109.804C220.053 109.698 219.993 109.594 219.915 109.494C219.839 109.391 219.734 109.306 219.601 109.24C219.468 109.174 219.298 109.14 219.091 109.14C218.807 109.14 218.571 109.206 218.382 109.337C218.195 109.465 218.101 109.629 218.101 109.829C218.101 110.006 218.166 110.145 218.294 110.248C218.423 110.351 218.624 110.436 218.898 110.505L219.586 110.674C220.001 110.774 220.309 110.928 220.513 111.135C220.716 111.341 220.817 111.605 220.817 111.929C220.817 112.195 220.741 112.432 220.588 112.641C220.437 112.85 220.226 113.015 219.954 113.136C219.683 113.257 219.367 113.317 219.007 113.317C218.534 113.317 218.142 113.215 217.833 113.009C217.523 112.804 217.327 112.504 217.244 112.11L217.92 111.941C217.985 112.191 218.106 112.378 218.285 112.502C218.466 112.627 218.703 112.69 218.995 112.69C219.327 112.69 219.59 112.619 219.785 112.478C219.982 112.335 220.081 112.164 220.081 111.965C220.081 111.804 220.025 111.669 219.912 111.561C219.799 111.45 219.626 111.368 219.393 111.313L218.62 111.132C218.196 111.032 217.884 110.876 217.685 110.664C217.488 110.451 217.389 110.185 217.389 109.865C217.389 109.603 217.462 109.372 217.609 109.171C217.758 108.969 217.96 108.811 218.216 108.697C218.473 108.582 218.765 108.525 219.091 108.525C219.55 108.525 219.91 108.625 220.172 108.827C220.435 109.028 220.622 109.293 220.733 109.623Z" fill="black"/>
<rect x="154.107" y="122.657" width="41.7847" height="41.7847" rx="10.9773" stroke="#D9D9D9" stroke-width="0.708215"/>
<g clip-path="url(#clip0_2262_8612)">
<path d="M182.088 140.111C182.088 141.14 182.125 142.162 182.076 143.191C182.027 144.362 182.381 145.366 183.114 146.254C183.2 146.358 183.279 146.463 183.353 146.574C183.615 146.974 183.567 147.252 183.206 147.56C182.436 148.213 181.673 148.872 180.903 149.525C180.445 149.913 180.158 149.907 179.694 149.525C179.07 149.014 178.582 148.385 178.148 147.714C178.044 147.554 177.989 147.56 177.861 147.683C177.091 148.441 176.279 149.143 175.246 149.494C173.652 150.043 172.033 150.129 170.432 149.556C168.893 149.002 167.971 147.855 167.628 146.26C167.25 144.479 167.445 142.785 168.532 141.275C169.357 140.135 170.5 139.464 171.813 139.051C173.169 138.632 174.568 138.472 175.973 138.33C176.37 138.287 176.761 138.25 177.158 138.213C177.256 138.207 177.342 138.194 177.335 138.065C177.323 137.412 177.39 136.747 177.238 136.106C177.042 135.286 176.511 134.806 175.698 134.627C175.118 134.498 174.544 134.535 173.982 134.726C173.126 135.021 172.595 135.619 172.381 136.506C172.265 136.993 172.039 137.165 171.569 137.116C170.567 137.011 169.565 136.907 168.569 136.802C168.16 136.759 167.946 136.445 168.032 136.044C168.551 133.487 170.212 132.051 172.607 131.392C174.446 130.887 176.309 130.856 178.154 131.38C179.638 131.799 180.885 132.538 181.581 134.005C181.978 134.836 182.07 135.736 182.082 136.636C182.094 137.788 182.082 138.952 182.088 140.111ZM177.335 142.033C177.335 141.725 177.323 141.417 177.342 141.109C177.354 140.918 177.287 140.85 177.097 140.868C176.633 140.912 176.163 140.918 175.698 140.979C174.886 141.084 174.092 141.287 173.432 141.805C172.473 142.563 172.271 143.598 172.43 144.762C172.619 146.13 173.829 146.888 175.124 146.432C176.004 146.124 176.541 145.471 176.914 144.652C177.305 143.82 177.335 142.926 177.335 142.033Z" fill="black"/>
<path fill-rule="evenodd" clip-rule="evenodd" d="M177.335 142.033C177.335 141.725 177.323 141.417 177.342 141.108C177.354 140.917 177.287 140.85 177.097 140.868C176.633 140.911 176.163 140.917 175.698 140.979C174.886 141.084 174.092 141.287 173.432 141.805C172.473 142.563 172.271 143.598 172.43 144.762C172.619 146.13 173.829 146.888 175.124 146.432C176.004 146.124 176.541 145.471 176.914 144.651C177.305 143.82 177.335 142.926 177.335 142.033Z" fill="white"/>
<path fill-rule="evenodd" clip-rule="evenodd" d="M175.075 155.94C170.414 155.909 166.229 154.702 162.448 152.157C161.678 151.639 160.945 151.073 160.249 150.45C160.188 150.395 160.127 150.339 160.078 150.272C160.01 150.179 159.962 150.068 160.041 149.957C160.12 149.834 160.255 149.822 160.371 149.877C160.64 150.007 160.896 150.148 161.159 150.284C163.566 151.565 166.101 152.49 168.758 153.075C171.165 153.605 173.597 153.851 176.065 153.784C179.59 153.685 182.986 152.97 186.254 151.645C186.413 151.578 186.578 151.51 186.743 151.473C186.975 151.43 187.207 151.461 187.311 151.713C187.409 151.947 187.281 152.132 187.11 152.28C186.987 152.385 186.847 152.471 186.706 152.564C184.599 153.944 182.29 154.831 179.846 155.379C178.233 155.749 176.596 155.928 175.075 155.94Z" fill="black"/>
<path fill-rule="evenodd" clip-rule="evenodd" d="M186.835 150.45C186.132 150.444 185.436 150.536 184.739 150.61C184.605 150.622 184.452 150.659 184.391 150.512C184.318 150.345 184.458 150.247 184.574 150.167C185.442 149.587 186.413 149.359 187.433 149.304C188.136 149.261 188.832 149.292 189.517 149.501C189.828 149.594 189.981 149.778 189.975 150.099C189.938 151.812 189.37 153.303 188.142 154.517C188.099 154.56 188.051 154.597 188.002 154.634C187.892 154.714 187.757 154.788 187.641 154.689C187.531 154.597 187.592 154.461 187.641 154.35C188.002 153.444 188.368 152.545 188.545 151.578C188.57 151.454 188.576 151.331 188.582 151.214C188.588 150.813 188.448 150.641 188.057 150.542C187.647 150.431 187.238 150.45 186.835 150.45Z" fill="black"/>
</g>
<path d="M215.514 132.585C215.458 132.058 215.22 131.648 214.802 131.354C214.387 131.06 213.848 130.914 213.184 130.914C212.717 130.914 212.317 130.984 211.983 131.125C211.649 131.266 211.394 131.457 211.217 131.698C211.039 131.94 210.949 132.215 210.945 132.525C210.945 132.783 211.003 133.006 211.12 133.195C211.241 133.384 211.404 133.545 211.609 133.678C211.814 133.807 212.041 133.915 212.291 134.004C212.54 134.092 212.792 134.167 213.045 134.227L214.204 134.517C214.671 134.626 215.12 134.772 215.55 134.958C215.985 135.143 216.373 135.376 216.715 135.658C217.061 135.939 217.335 136.279 217.536 136.678C217.737 137.076 217.838 137.543 217.838 138.078C217.838 138.802 217.653 139.44 217.283 139.992C216.912 140.539 216.377 140.967 215.677 141.277C214.981 141.583 214.138 141.736 213.148 141.736C212.186 141.736 211.351 141.587 210.643 141.289C209.939 140.992 209.388 140.557 208.989 139.986C208.595 139.414 208.382 138.718 208.349 137.897H210.553C210.585 138.328 210.718 138.686 210.951 138.971C211.184 139.257 211.488 139.47 211.862 139.611C212.241 139.752 212.663 139.823 213.13 139.823C213.617 139.823 214.043 139.75 214.41 139.605C214.78 139.456 215.069 139.251 215.279 138.99C215.488 138.724 215.595 138.414 215.599 138.06C215.595 137.738 215.5 137.473 215.315 137.263C215.13 137.05 214.87 136.873 214.536 136.732C214.206 136.587 213.82 136.459 213.377 136.346L211.971 135.984C210.953 135.722 210.148 135.326 209.557 134.795C208.969 134.259 208.675 133.549 208.675 132.664C208.675 131.936 208.873 131.298 209.267 130.751C209.665 130.203 210.206 129.779 210.891 129.477C211.575 129.171 212.349 129.018 213.214 129.018C214.092 129.018 214.86 129.171 215.52 129.477C216.184 129.779 216.705 130.199 217.083 130.738C217.462 131.274 217.657 131.889 217.669 132.585H215.514ZM223.842 141.73C222.913 141.73 222.11 141.537 221.434 141.15C220.762 140.76 220.245 140.209 219.883 139.497C219.52 138.78 219.339 137.937 219.339 136.968C219.339 136.014 219.52 135.177 219.883 134.457C220.249 133.732 220.76 133.169 221.416 132.767C222.072 132.36 222.842 132.157 223.727 132.157C224.299 132.157 224.838 132.249 225.345 132.435C225.856 132.616 226.307 132.897 226.697 133.28C227.091 133.662 227.401 134.149 227.627 134.74C227.852 135.328 227.965 136.028 227.965 136.841V137.511H220.365V136.038H225.87C225.866 135.62 225.776 135.247 225.599 134.921C225.422 134.591 225.174 134.332 224.856 134.143C224.542 133.954 224.176 133.859 223.758 133.859C223.311 133.859 222.919 133.968 222.581 134.185C222.243 134.398 221.979 134.68 221.79 135.03C221.605 135.376 221.51 135.756 221.506 136.171V137.456C221.506 137.996 221.605 138.458 221.802 138.845C221.999 139.227 222.275 139.521 222.629 139.726C222.983 139.927 223.398 140.028 223.872 140.028C224.19 140.028 224.478 139.984 224.735 139.895C224.993 139.802 225.216 139.668 225.405 139.491C225.595 139.314 225.737 139.094 225.834 138.833L227.874 139.062C227.745 139.601 227.5 140.072 227.138 140.474C226.78 140.873 226.321 141.183 225.762 141.404C225.202 141.621 224.562 141.73 223.842 141.73ZM231.998 136.116V141.549H229.813V132.278H231.902V133.853H232.01C232.224 133.334 232.564 132.921 233.03 132.616C233.501 132.31 234.083 132.157 234.775 132.157C235.415 132.157 235.972 132.294 236.447 132.567C236.926 132.841 237.296 133.237 237.557 133.756C237.823 134.276 237.954 134.905 237.95 135.646V141.549H235.765V135.984C235.765 135.364 235.604 134.879 235.282 134.529C234.964 134.179 234.523 134.004 233.96 134.004C233.578 134.004 233.238 134.088 232.94 134.257C232.646 134.422 232.415 134.662 232.246 134.976C232.081 135.29 231.998 135.67 231.998 136.116ZM240.171 141.549V132.278H242.356V141.549H240.171ZM241.269 130.962C240.923 130.962 240.626 130.847 240.376 130.618C240.127 130.384 240.002 130.105 240.002 129.779C240.002 129.449 240.127 129.169 240.376 128.94C240.626 128.706 240.923 128.59 241.269 128.59C241.619 128.59 241.917 128.706 242.163 128.94C242.412 129.169 242.537 129.449 242.537 129.779C242.537 130.105 242.412 130.384 242.163 130.618C241.917 130.847 241.619 130.962 241.269 130.962ZM248.647 141.73C247.741 141.73 246.957 141.531 246.293 141.132C245.629 140.734 245.114 140.177 244.748 139.46C244.385 138.744 244.204 137.907 244.204 136.949C244.204 135.992 244.385 135.153 244.748 134.432C245.114 133.712 245.629 133.153 246.293 132.754C246.957 132.356 247.741 132.157 248.647 132.157C249.552 132.157 250.337 132.356 251.001 132.754C251.665 133.153 252.178 133.712 252.54 134.432C252.906 135.153 253.089 135.992 253.089 136.949C253.089 137.907 252.906 138.744 252.54 139.46C252.178 140.177 251.665 140.734 251.001 141.132C250.337 141.531 249.552 141.73 248.647 141.73ZM248.659 139.979C249.15 139.979 249.56 139.845 249.89 139.575C250.22 139.301 250.466 138.935 250.627 138.477C250.792 138.018 250.874 137.507 250.874 136.943C250.874 136.376 250.792 135.863 250.627 135.404C250.466 134.942 250.22 134.573 249.89 134.3C249.56 134.026 249.15 133.889 248.659 133.889C248.156 133.889 247.737 134.026 247.403 134.3C247.073 134.573 246.826 134.942 246.661 135.404C246.5 135.863 246.42 136.376 246.42 136.943C246.42 137.507 246.5 138.018 246.661 138.477C246.826 138.935 247.073 139.301 247.403 139.575C247.737 139.845 248.156 139.979 248.659 139.979ZM254.944 141.549V132.278H257.062V133.823H257.159C257.328 133.288 257.618 132.875 258.028 132.585C258.443 132.292 258.915 132.145 259.447 132.145C259.567 132.145 259.702 132.151 259.851 132.163C260.004 132.171 260.131 132.185 260.231 132.205V134.215C260.139 134.183 259.992 134.155 259.791 134.131C259.593 134.103 259.402 134.088 259.217 134.088C258.819 134.088 258.461 134.175 258.143 134.348C257.829 134.517 257.581 134.752 257.4 135.054C257.219 135.356 257.129 135.704 257.129 136.098V141.549H254.944ZM272.714 132.585C272.657 132.058 272.42 131.648 272.001 131.354C271.587 131.06 271.048 130.914 270.384 130.914C269.917 130.914 269.517 130.984 269.183 131.125C268.849 131.266 268.593 131.457 268.416 131.698C268.239 131.94 268.148 132.215 268.144 132.525C268.144 132.783 268.203 133.006 268.319 133.195C268.44 133.384 268.603 133.545 268.808 133.678C269.014 133.807 269.241 133.915 269.49 134.004C269.74 134.092 269.991 134.167 270.245 134.227L271.404 134.517C271.871 134.626 272.319 134.772 272.75 134.958C273.184 135.143 273.573 135.376 273.915 135.658C274.261 135.939 274.534 136.279 274.736 136.678C274.937 137.076 275.037 137.543 275.037 138.078C275.037 138.802 274.852 139.44 274.482 139.992C274.112 140.539 273.577 140.967 272.877 141.277C272.18 141.583 271.337 141.736 270.347 141.736C269.386 141.736 268.551 141.587 267.843 141.289C267.138 140.992 266.587 140.557 266.189 139.986C265.794 139.414 265.581 138.718 265.549 137.897H267.752C267.784 138.328 267.917 138.686 268.15 138.971C268.384 139.257 268.688 139.47 269.062 139.611C269.44 139.752 269.863 139.823 270.329 139.823C270.816 139.823 271.243 139.75 271.609 139.605C271.979 139.456 272.269 139.251 272.478 138.99C272.687 138.724 272.794 138.414 272.798 138.06C272.794 137.738 272.699 137.473 272.514 137.263C272.329 137.05 272.07 136.873 271.736 136.732C271.406 136.587 271.019 136.459 270.577 136.346L269.17 135.984C268.152 135.722 267.348 135.326 266.756 134.795C266.169 134.259 265.875 133.549 265.875 132.664C265.875 131.936 266.072 131.298 266.466 130.751C266.865 130.203 267.406 129.779 268.09 129.477C268.774 129.171 269.549 129.018 270.414 129.018C271.291 129.018 272.06 129.171 272.72 129.477C273.384 129.779 273.905 130.199 274.283 130.738C274.661 131.274 274.856 131.889 274.868 132.585H272.714ZM280.981 141.73C280.076 141.73 279.291 141.531 278.627 141.132C277.963 140.734 277.448 140.177 277.082 139.46C276.72 138.744 276.539 137.907 276.539 136.949C276.539 135.992 276.72 135.153 277.082 134.432C277.448 133.712 277.963 133.153 278.627 132.754C279.291 132.356 280.076 132.157 280.981 132.157C281.887 132.157 282.671 132.356 283.335 132.754C283.999 133.153 284.512 133.712 284.874 134.432C285.241 135.153 285.424 135.992 285.424 136.949C285.424 137.907 285.241 138.744 284.874 139.46C284.512 140.177 283.999 140.734 283.335 141.132C282.671 141.531 281.887 141.73 280.981 141.73ZM280.993 139.979C281.484 139.979 281.895 139.845 282.225 139.575C282.555 139.301 282.8 138.935 282.961 138.477C283.126 138.018 283.209 137.507 283.209 136.943C283.209 136.376 283.126 135.863 282.961 135.404C282.8 134.942 282.555 134.573 282.225 134.3C281.895 134.026 281.484 133.889 280.993 133.889C280.49 133.889 280.072 134.026 279.738 134.3C279.408 134.573 279.16 134.942 278.995 135.404C278.834 135.863 278.754 136.376 278.754 136.943C278.754 137.507 278.834 138.018 278.995 138.477C279.16 138.935 279.408 139.301 279.738 139.575C280.072 139.845 280.49 139.979 280.993 139.979ZM291.974 132.278V133.968H286.494V132.278H291.974ZM287.864 141.549V131.402C287.864 130.779 287.992 130.26 288.25 129.845C288.512 129.431 288.862 129.121 289.3 128.916C289.739 128.71 290.226 128.608 290.761 128.608C291.139 128.608 291.475 128.638 291.769 128.698C292.063 128.759 292.28 128.813 292.421 128.861L291.986 130.551C291.894 130.523 291.777 130.495 291.636 130.467C291.495 130.435 291.338 130.419 291.165 130.419C290.759 130.419 290.471 130.517 290.302 130.714C290.137 130.907 290.055 131.185 290.055 131.547V141.549H287.864ZM298.315 132.278V133.968H292.985V132.278H298.315ZM294.301 130.056H296.486V138.76C296.486 139.054 296.53 139.279 296.619 139.436C296.711 139.589 296.832 139.694 296.981 139.75C297.13 139.806 297.295 139.835 297.476 139.835C297.613 139.835 297.737 139.825 297.85 139.804C297.967 139.784 298.055 139.766 298.116 139.75L298.484 141.458C298.367 141.499 298.2 141.543 297.983 141.591C297.77 141.639 297.508 141.668 297.198 141.676C296.651 141.692 296.158 141.609 295.719 141.428C295.281 141.243 294.933 140.957 294.675 140.571C294.422 140.185 294.297 139.702 294.301 139.122V130.056ZM302.056 141.549L299.436 132.278H301.663L303.293 138.796H303.378L305.043 132.278H307.247L308.912 138.76H309.003L310.609 132.278H312.842L310.216 141.549H307.941L306.202 135.284H306.076L304.337 141.549H302.056ZM317.035 141.736C316.448 141.736 315.919 141.631 315.448 141.422C314.981 141.209 314.611 140.895 314.337 140.48C314.068 140.066 313.933 139.555 313.933 138.947C313.933 138.424 314.029 137.992 314.223 137.65C314.416 137.308 314.679 137.034 315.013 136.829C315.347 136.624 315.724 136.469 316.142 136.364C316.565 136.255 317.001 136.177 317.452 136.129C317.995 136.072 318.436 136.022 318.774 135.978C319.112 135.929 319.357 135.857 319.51 135.76C319.667 135.66 319.745 135.505 319.745 135.296V135.259C319.745 134.805 319.611 134.453 319.341 134.203C319.071 133.954 318.683 133.829 318.176 133.829C317.641 133.829 317.216 133.946 316.903 134.179C316.593 134.412 316.383 134.688 316.275 135.006L314.235 134.716C314.396 134.153 314.661 133.682 315.031 133.304C315.402 132.921 315.854 132.636 316.389 132.447C316.925 132.254 317.516 132.157 318.164 132.157C318.611 132.157 319.055 132.209 319.498 132.314C319.941 132.418 320.345 132.592 320.711 132.833C321.077 133.07 321.371 133.394 321.592 133.805C321.818 134.215 321.93 134.728 321.93 135.344V141.549H319.83V140.275H319.758C319.625 140.533 319.438 140.774 319.196 141C318.959 141.221 318.659 141.4 318.297 141.537C317.939 141.67 317.518 141.736 317.035 141.736ZM317.603 140.13C318.041 140.13 318.422 140.044 318.743 139.871C319.065 139.694 319.313 139.46 319.486 139.171C319.663 138.881 319.751 138.565 319.751 138.223V137.131C319.683 137.187 319.566 137.239 319.401 137.287C319.24 137.336 319.059 137.378 318.858 137.414C318.657 137.45 318.458 137.483 318.261 137.511C318.063 137.539 317.892 137.563 317.748 137.583C317.422 137.627 317.13 137.7 316.872 137.801C316.615 137.901 316.412 138.042 316.263 138.223C316.114 138.4 316.039 138.629 316.039 138.911C316.039 139.314 316.186 139.617 316.48 139.823C316.774 140.028 317.148 140.13 317.603 140.13ZM324.128 141.549V132.278H326.246V133.823H326.343C326.512 133.288 326.801 132.875 327.212 132.585C327.626 132.292 328.099 132.145 328.63 132.145C328.751 132.145 328.886 132.151 329.035 132.163C329.188 132.171 329.314 132.185 329.415 132.205V134.215C329.322 134.183 329.176 134.155 328.974 134.131C328.777 134.103 328.586 134.088 328.401 134.088C328.003 134.088 327.644 134.175 327.327 134.348C327.013 134.517 326.765 134.752 326.584 135.054C326.403 135.356 326.313 135.704 326.313 136.098V141.549H324.128ZM334.589 141.73C333.66 141.73 332.857 141.537 332.181 141.15C331.509 140.76 330.992 140.209 330.63 139.497C330.268 138.78 330.087 137.937 330.087 136.968C330.087 136.014 330.268 135.177 330.63 134.457C330.996 133.732 331.507 133.169 332.163 132.767C332.819 132.36 333.589 132.157 334.475 132.157C335.046 132.157 335.585 132.249 336.092 132.435C336.603 132.616 337.054 132.897 337.444 133.28C337.839 133.662 338.148 134.149 338.374 134.74C338.599 135.328 338.712 136.028 338.712 136.841V137.511H331.113V136.038H336.617C336.613 135.62 336.523 135.247 336.346 134.921C336.169 134.591 335.921 134.332 335.603 134.143C335.289 133.954 334.923 133.859 334.505 133.859C334.058 133.859 333.666 133.968 333.328 134.185C332.99 134.398 332.726 134.68 332.537 135.03C332.352 135.376 332.257 135.756 332.253 136.171V137.456C332.253 137.996 332.352 138.458 332.549 138.845C332.746 139.227 333.022 139.521 333.376 139.726C333.73 139.927 334.145 140.028 334.619 140.028C334.937 140.028 335.225 139.984 335.483 139.895C335.74 139.802 335.963 139.668 336.153 139.491C336.342 139.314 336.485 139.094 336.581 138.833L338.621 139.062C338.493 139.601 338.247 140.072 337.885 140.474C337.527 140.873 337.068 141.183 336.509 141.404C335.949 141.621 335.31 141.73 334.589 141.73ZM344.873 141.549V129.187H352.913V131.064H347.112V134.42H352.496V136.298H347.112V139.672H352.961V141.549H344.873ZM357.286 136.116V141.549H355.101V132.278H357.189V133.853H357.298C357.511 133.334 357.851 132.921 358.318 132.616C358.789 132.31 359.37 132.157 360.062 132.157C360.702 132.157 361.26 132.294 361.734 132.567C362.213 132.841 362.583 133.237 362.845 133.756C363.111 134.276 363.241 134.905 363.237 135.646V141.549H361.052V135.984C361.052 135.364 360.891 134.879 360.569 134.529C360.252 134.179 359.811 134.004 359.248 134.004C358.865 134.004 358.525 134.088 358.228 134.257C357.934 134.422 357.702 134.662 357.533 134.976C357.368 135.29 357.286 135.67 357.286 136.116ZM369.491 145.219C368.706 145.219 368.032 145.112 367.469 144.899C366.905 144.69 366.452 144.408 366.11 144.054C365.768 143.7 365.531 143.307 365.398 142.877L367.366 142.4C367.454 142.581 367.583 142.76 367.752 142.937C367.921 143.118 368.149 143.267 368.434 143.384C368.724 143.504 369.088 143.565 369.527 143.565C370.146 143.565 370.659 143.414 371.066 143.112C371.472 142.814 371.676 142.323 371.676 141.639V139.883H371.567C371.454 140.108 371.289 140.34 371.072 140.577C370.859 140.814 370.575 141.014 370.221 141.175C369.871 141.336 369.43 141.416 368.899 141.416C368.187 141.416 367.541 141.249 366.961 140.915C366.386 140.577 365.927 140.074 365.585 139.406C365.247 138.734 365.078 137.893 365.078 136.883C365.078 135.865 365.247 135.006 365.585 134.306C365.927 133.602 366.388 133.068 366.968 132.706C367.547 132.34 368.193 132.157 368.905 132.157C369.448 132.157 369.895 132.249 370.245 132.435C370.599 132.616 370.881 132.835 371.09 133.092C371.299 133.346 371.458 133.585 371.567 133.811H371.688V132.278H373.842V141.7C373.842 142.492 373.653 143.148 373.275 143.667C372.897 144.187 372.38 144.575 371.724 144.832C371.068 145.09 370.323 145.219 369.491 145.219ZM369.509 139.702C369.971 139.702 370.366 139.589 370.692 139.364C371.018 139.138 371.265 138.815 371.434 138.392C371.603 137.97 371.688 137.463 371.688 136.871C371.688 136.288 371.603 135.776 371.434 135.338C371.269 134.899 371.024 134.559 370.698 134.318C370.376 134.072 369.979 133.95 369.509 133.95C369.022 133.95 368.615 134.076 368.289 134.33C367.963 134.583 367.718 134.931 367.553 135.374C367.388 135.813 367.306 136.312 367.306 136.871C367.306 137.438 367.388 137.935 367.553 138.362C367.722 138.784 367.969 139.114 368.295 139.352C368.625 139.585 369.03 139.702 369.509 139.702ZM376.082 141.549V132.278H378.267V141.549H376.082ZM377.18 130.962C376.834 130.962 376.536 130.847 376.287 130.618C376.038 130.384 375.913 130.105 375.913 129.779C375.913 129.449 376.038 129.169 376.287 128.94C376.536 128.706 376.834 128.59 377.18 128.59C377.53 128.59 377.828 128.706 378.074 128.94C378.323 129.169 378.448 129.449 378.448 129.779C378.448 130.105 378.323 130.384 378.074 130.618C377.828 130.847 377.53 130.962 377.18 130.962ZM382.699 136.116V141.549H380.514V132.278H382.602V133.853H382.711C382.924 133.334 383.264 132.921 383.731 132.616C384.202 132.31 384.783 132.157 385.475 132.157C386.115 132.157 386.672 132.294 387.147 132.567C387.626 132.841 387.996 133.237 388.258 133.756C388.523 134.276 388.654 134.905 388.65 135.646V141.549H386.465V135.984C386.465 135.364 386.304 134.879 385.982 134.529C385.664 134.179 385.224 134.004 384.66 134.004C384.278 134.004 383.938 134.088 383.64 134.257C383.347 134.422 383.115 134.662 382.946 134.976C382.781 135.29 382.699 135.67 382.699 136.116ZM394.976 141.73C394.046 141.73 393.243 141.537 392.567 141.15C391.895 140.76 391.378 140.209 391.016 139.497C390.654 138.78 390.473 137.937 390.473 136.968C390.473 136.014 390.654 135.177 391.016 134.457C391.382 133.732 391.893 133.169 392.549 132.767C393.205 132.36 393.976 132.157 394.861 132.157C395.432 132.157 395.972 132.249 396.479 132.435C396.99 132.616 397.44 132.897 397.831 133.28C398.225 133.662 398.535 134.149 398.76 134.74C398.986 135.328 399.098 136.028 399.098 136.841V137.511H391.499V136.038H397.004C397 135.62 396.909 135.247 396.732 134.921C396.555 134.591 396.308 134.332 395.99 134.143C395.676 133.954 395.31 133.859 394.891 133.859C394.445 133.859 394.052 133.968 393.714 134.185C393.376 134.398 393.113 134.68 392.924 135.03C392.738 135.376 392.644 135.756 392.64 136.171V137.456C392.64 137.996 392.738 138.458 392.936 138.845C393.133 139.227 393.408 139.521 393.763 139.726C394.117 139.927 394.531 140.028 395.006 140.028C395.324 140.028 395.612 139.984 395.869 139.895C396.127 139.802 396.35 139.668 396.539 139.491C396.728 139.314 396.871 139.094 396.968 138.833L399.008 139.062C398.879 139.601 398.633 140.072 398.271 140.474C397.913 140.873 397.454 141.183 396.895 141.404C396.336 141.621 395.696 141.73 394.976 141.73ZM405.051 141.73C404.122 141.73 403.319 141.537 402.643 141.15C401.971 140.76 401.454 140.209 401.092 139.497C400.729 138.78 400.548 137.937 400.548 136.968C400.548 136.014 400.729 135.177 401.092 134.457C401.458 133.732 401.969 133.169 402.625 132.767C403.281 132.36 404.051 132.157 404.937 132.157C405.508 132.157 406.047 132.249 406.554 132.435C407.065 132.616 407.516 132.897 407.906 133.28C408.301 133.662 408.61 134.149 408.836 134.74C409.061 135.328 409.174 136.028 409.174 136.841V137.511H401.574V136.038H407.079C407.075 135.62 406.985 135.247 406.808 134.921C406.631 134.591 406.383 134.332 406.065 134.143C405.751 133.954 405.385 133.859 404.967 133.859C404.52 133.859 404.128 133.968 403.79 134.185C403.452 134.398 403.188 134.68 402.999 135.03C402.814 135.376 402.719 135.756 402.715 136.171V137.456C402.715 137.996 402.814 138.458 403.011 138.845C403.208 139.227 403.484 139.521 403.838 139.726C404.192 139.927 404.607 140.028 405.081 140.028C405.399 140.028 405.687 139.984 405.945 139.895C406.202 139.802 406.425 139.668 406.614 139.491C406.804 139.314 406.946 139.094 407.043 138.833L409.083 139.062C408.954 139.601 408.709 140.072 408.347 140.474C407.989 140.873 407.53 141.183 406.971 141.404C406.411 141.621 405.771 141.73 405.051 141.73ZM411.022 141.549V132.278H413.141V133.823H413.237C413.406 133.288 413.696 132.875 414.107 132.585C414.521 132.292 414.994 132.145 415.525 132.145C415.646 132.145 415.781 132.151 415.929 132.163C416.082 132.171 416.209 132.185 416.31 132.205V134.215C416.217 134.183 416.07 134.155 415.869 134.131C415.672 134.103 415.481 134.088 415.296 134.088C414.897 134.088 414.539 134.175 414.221 134.348C413.907 134.517 413.66 134.752 413.479 135.054C413.298 135.356 413.207 135.704 413.207 136.098V141.549H411.022Z" fill="black"/>
<path d="M209.178 160.549H207.859L210.824 152.308H212.261L215.226 160.549H213.907L211.577 153.805H211.512L209.178 160.549ZM209.4 157.322H213.681V158.368H209.4V157.322ZM216.32 160.549V154.368H217.475V155.374H217.551C217.68 155.033 217.891 154.768 218.183 154.577C218.475 154.384 218.825 154.288 219.233 154.288C219.646 154.288 219.992 154.384 220.271 154.577C220.553 154.77 220.761 155.036 220.895 155.374H220.959C221.107 155.044 221.342 154.781 221.664 154.585C221.986 154.387 222.369 154.288 222.815 154.288C223.375 154.288 223.833 154.463 224.187 154.815C224.543 155.166 224.722 155.696 224.722 156.404V160.549H223.519V156.517C223.519 156.098 223.405 155.795 223.177 155.607C222.949 155.42 222.676 155.326 222.36 155.326C221.968 155.326 221.664 155.446 221.446 155.688C221.229 155.927 221.12 156.234 221.12 156.609V160.549H219.921V156.44C219.921 156.105 219.817 155.835 219.607 155.632C219.398 155.428 219.126 155.326 218.791 155.326C218.563 155.326 218.352 155.386 218.159 155.507C217.968 155.625 217.814 155.79 217.696 156.002C217.581 156.214 217.523 156.459 217.523 156.738V160.549H216.32ZM228.133 160.686C227.742 160.686 227.387 160.613 227.071 160.468C226.754 160.321 226.503 160.108 226.318 159.829C226.136 159.55 226.045 159.208 226.045 158.802C226.045 158.454 226.112 158.167 226.246 157.941C226.38 157.716 226.561 157.538 226.789 157.406C227.017 157.275 227.272 157.175 227.554 157.108C227.835 157.041 228.122 156.99 228.415 156.955C228.785 156.913 229.086 156.878 229.316 156.851C229.547 156.821 229.715 156.774 229.819 156.71C229.924 156.646 229.976 156.541 229.976 156.396V156.368C229.976 156.017 229.877 155.744 229.678 155.551C229.483 155.358 229.19 155.261 228.801 155.261C228.396 155.261 228.077 155.351 227.843 155.531C227.613 155.708 227.453 155.905 227.365 156.122L226.234 155.865C226.368 155.489 226.564 155.186 226.821 154.956C227.082 154.722 227.381 154.553 227.719 154.449C228.057 154.341 228.412 154.288 228.785 154.288C229.032 154.288 229.293 154.317 229.57 154.376C229.849 154.432 230.109 154.537 230.35 154.69C230.595 154.843 230.794 155.062 230.95 155.346C231.106 155.628 231.183 155.994 231.183 156.444V160.549H230.008V159.704H229.96C229.882 159.859 229.766 160.012 229.61 160.163C229.454 160.313 229.255 160.437 229.01 160.537C228.766 160.636 228.474 160.686 228.133 160.686ZM228.395 159.72C228.727 159.72 229.012 159.654 229.248 159.523C229.487 159.391 229.668 159.22 229.791 159.008C229.917 158.793 229.98 158.564 229.98 158.32V157.523C229.937 157.566 229.854 157.606 229.731 157.644C229.61 157.678 229.472 157.709 229.316 157.736C229.161 157.76 229.009 157.783 228.862 157.804C228.714 157.823 228.591 157.839 228.491 157.853C228.258 157.882 228.045 157.932 227.852 158.002C227.661 158.071 227.508 158.172 227.393 158.303C227.28 158.432 227.224 158.604 227.224 158.819C227.224 159.116 227.334 159.342 227.554 159.495C227.774 159.645 228.054 159.72 228.395 159.72ZM232.657 160.549V159.724L236.005 155.471V155.414H232.766V154.368H237.506V155.245L234.287 159.446V159.503H237.619V160.549H232.657ZM241.465 160.674C240.885 160.674 240.379 160.541 239.948 160.275C239.516 160.01 239.18 159.638 238.942 159.161C238.703 158.683 238.583 158.125 238.583 157.487C238.583 156.845 238.703 156.285 238.942 155.805C239.18 155.324 239.516 154.952 239.948 154.686C240.379 154.42 240.885 154.288 241.465 154.288C242.044 154.288 242.55 154.42 242.982 154.686C243.413 154.952 243.749 155.324 243.988 155.805C244.226 156.285 244.346 156.845 244.346 157.487C244.346 158.125 244.226 158.683 243.988 159.161C243.749 159.638 243.413 160.01 242.982 160.275C242.55 160.541 242.044 160.674 241.465 160.674ZM241.469 159.664C241.844 159.664 242.155 159.564 242.402 159.366C242.649 159.167 242.831 158.903 242.949 158.573C243.07 158.243 243.13 157.88 243.13 157.483C243.13 157.088 243.07 156.726 242.949 156.396C242.831 156.063 242.649 155.797 242.402 155.595C242.155 155.394 241.844 155.294 241.469 155.294C241.09 155.294 240.776 155.394 240.527 155.595C240.28 155.797 240.096 156.063 239.976 156.396C239.858 156.726 239.799 157.088 239.799 157.483C239.799 157.88 239.858 158.243 239.976 158.573C240.096 158.903 240.28 159.167 240.527 159.366C240.776 159.564 241.09 159.664 241.469 159.664ZM246.892 156.879V160.549H245.689V154.368H246.844V155.374H246.92C247.062 155.047 247.285 154.784 247.588 154.585C247.894 154.387 248.279 154.288 248.743 154.288C249.164 154.288 249.533 154.376 249.849 154.553C250.166 154.728 250.411 154.988 250.586 155.334C250.76 155.68 250.847 156.108 250.847 156.617V160.549H249.644V156.762C249.644 156.314 249.528 155.964 249.294 155.712C249.061 155.457 248.74 155.33 248.332 155.33C248.053 155.33 247.805 155.39 247.588 155.511C247.373 155.632 247.203 155.809 247.077 156.042C246.954 156.273 246.892 156.552 246.892 156.879Z" fill="black"/>
</g>
<g filter="url(#filter1_d_2262_8612)">
<circle cx="435.426" cy="83.6344" r="43.3513" fill="white" stroke="#D9D9D9" stroke-width="1.0975"/>
</g>
<g clip-path="url(#clip1_2262_8612)">
<path d="M436.199 46.7585C436.219 46.0827 436.783 45.549 437.458 45.5908C445.505 46.0893 453.194 49.1489 459.393 54.3387C465.904 59.7908 470.39 67.2764 472.129 75.5893C473.867 83.9022 472.756 92.5582 468.974 100.163C465.193 107.767 458.961 113.877 451.284 117.507C443.606 121.138 434.93 122.078 426.653 120.177C418.376 118.275 410.981 113.642 405.658 107.024C400.335 100.407 397.395 92.1895 397.312 83.6973C397.233 75.6137 399.747 67.7288 404.467 61.1924C404.863 60.6443 405.634 60.5467 406.169 60.96C406.704 61.3734 406.8 62.141 406.406 62.69C402.021 68.7905 399.687 76.1397 399.76 83.6734C399.838 91.6157 402.587 99.3007 407.566 105.49C412.544 111.679 419.46 116.012 427.201 117.791C434.942 119.569 443.057 118.69 450.237 115.294C457.417 111.899 463.245 106.184 466.782 99.0724C470.319 91.9605 471.358 83.865 469.732 76.0904C468.107 68.3158 463.911 61.3149 457.821 56.2157C452.044 51.379 444.883 48.5206 437.385 48.0393C436.711 47.996 436.179 47.4343 436.199 46.7585Z" fill="url(#paint1_linear_2262_8612)"/>
<path d="M468.43 89.6826C464.92 108.079 447.161 120.147 428.764 116.637C410.367 113.127 398.299 95.3673 401.81 76.9705C405.32 58.5737 423.079 46.5059 441.476 50.0162C459.873 53.5266 471.941 71.2858 468.43 89.6826ZM402.217 77.0482C398.749 95.2201 410.67 112.762 428.842 116.23C447.014 119.697 464.556 107.777 468.023 89.6049C471.491 71.433 459.57 53.8908 441.398 50.4234C423.226 46.9559 405.684 58.8763 402.217 77.0482Z" fill="#2CA965" fill-opacity="0.3"/>
<rect x="398.514" y="83.1641" width="52.693" height="52.693" rx="26.3465" transform="rotate(-45 398.514 83.1641)" fill="#00E266" fill-opacity="0.1" stroke="url(#paint2_linear_2262_8612)" stroke-width="0.545585"/>
<rect x="407.403" y="83.1641" width="40.1218" height="40.1218" rx="20.0609" transform="rotate(-45 407.403 83.1641)" fill="#00E266" fill-opacity="0.3"/>
<path d="M425.264 76.6186C425.766 76.622 426.255 76.7109 426.731 76.8853C427.209 77.0563 427.64 77.3367 428.023 77.7266C428.406 78.113 428.711 78.6311 428.936 79.2808C429.162 79.9306 429.275 80.7342 429.275 81.6917C429.278 82.5945 429.183 83.4016 428.988 84.1129C428.796 84.8208 428.521 85.4192 428.162 85.9082C427.803 86.3973 427.37 86.77 426.864 87.0265C426.358 87.283 425.788 87.4112 425.156 87.4112C424.492 87.4112 423.904 87.2813 423.391 87.0214C422.882 86.7615 422.47 86.4058 422.155 85.9544C421.84 85.503 421.647 84.9866 421.575 84.4053L423.448 84.4053C423.543 84.8225 423.738 85.1542 424.032 85.4004C424.33 85.6432 424.704 85.7646 425.156 85.7646C425.884 85.7646 426.445 85.4483 426.838 84.8156C427.232 84.183 427.428 83.3041 427.428 82.179L427.356 82.179C427.189 82.48 426.972 82.7399 426.705 82.9587C426.438 83.1742 426.136 83.34 425.797 83.4563C425.462 83.5726 425.106 83.6307 424.73 83.6307C424.115 83.6307 423.561 83.4837 423.068 83.1896C422.579 82.8955 422.191 82.4919 421.904 81.979C421.62 81.466 421.476 80.8796 421.473 80.2195C421.473 79.5356 421.63 78.9218 421.945 78.378C422.263 77.8309 422.706 77.4 423.273 77.0854C423.841 76.7673 424.504 76.6117 425.264 76.6186ZM425.269 78.1575C424.899 78.1575 424.566 78.2481 424.268 78.4293C423.974 78.6072 423.742 78.85 423.571 79.1577C423.403 79.4621 423.319 79.8023 423.319 80.1785C423.323 80.5513 423.407 80.8898 423.571 81.1942C423.738 81.4985 423.966 81.7396 424.253 81.9174C424.544 82.0953 424.875 82.1842 425.248 82.1842C425.525 82.1842 425.783 82.1312 426.023 82.0252C426.262 81.9191 426.471 81.7721 426.649 81.584C426.83 81.3925 426.97 81.1754 427.069 80.9326C427.172 80.6898 427.221 80.4333 427.218 80.1631C427.218 79.8041 427.132 79.4723 426.961 79.168C426.794 78.8636 426.563 78.6191 426.269 78.4345C425.978 78.2498 425.645 78.1575 425.269 78.1575ZM434.635 87.4112C433.951 87.4112 433.339 87.283 432.799 87.0265C432.259 86.7666 431.829 86.4109 431.511 85.9595C431.197 85.5081 431.029 84.9918 431.009 84.4104L432.855 84.4104C432.89 84.8413 433.076 85.1935 433.414 85.4671C433.753 85.7373 434.16 85.8723 434.635 85.8723C435.008 85.8723 435.34 85.7868 435.63 85.6159C435.921 85.4449 436.15 85.2072 436.318 84.9028C436.485 84.5985 436.567 84.2514 436.564 83.8615C436.567 83.4649 436.484 83.1126 436.313 82.8049C436.142 82.4971 435.907 82.256 435.61 82.0816C435.312 81.9038 434.97 81.8148 434.584 81.8148C434.269 81.8114 433.96 81.8696 433.656 81.9892C433.351 82.1089 433.11 82.2662 432.932 82.4612L431.214 82.179L431.763 76.7622L437.857 76.7622L437.857 78.3524L433.338 78.3524L433.035 81.1377L433.096 81.1377C433.291 80.9086 433.567 80.7188 433.922 80.5684C434.278 80.4145 434.668 80.3375 435.092 80.3375C435.728 80.3375 436.296 80.488 436.795 80.7889C437.294 81.0864 437.687 81.4968 437.975 82.02C438.262 82.5432 438.406 83.1417 438.406 83.8154C438.406 84.5096 438.245 85.1285 437.923 85.6723C437.605 86.2126 437.162 86.6384 436.595 86.9495C436.031 87.2573 435.377 87.4112 434.635 87.4112ZM445.741 85.2978L445.741 84.7438C445.741 84.3369 445.826 83.9624 445.997 83.6205C446.172 83.2785 446.425 83.0032 446.756 82.7946C447.088 82.586 447.49 82.4817 447.962 82.4817C448.448 82.4817 448.854 82.586 449.183 82.7946C449.511 82.9998 449.759 83.2734 449.927 83.6153C450.098 83.9573 450.183 84.3335 450.183 84.7438L450.183 85.2978C450.183 85.7048 450.098 86.0792 449.927 86.4212C449.756 86.7632 449.504 87.0385 449.172 87.2471C448.844 87.4557 448.441 87.56 447.962 87.56C447.483 87.56 447.078 87.4557 446.746 87.2471C446.414 87.0385 446.163 86.7632 445.992 86.4212C445.825 86.0792 445.741 85.7048 445.741 85.2978ZM447.08 84.7438L447.08 85.2978C447.08 85.568 447.145 85.8159 447.275 86.0416C447.405 86.2673 447.634 86.3802 447.962 86.3802C448.294 86.3802 448.521 86.269 448.644 86.0467C448.771 85.821 448.834 85.5714 448.834 85.2978L448.834 84.7438C448.834 84.4703 448.774 84.2206 448.654 83.9949C448.535 83.7658 448.304 83.6512 447.962 83.6512C447.64 83.6512 447.413 83.7658 447.28 83.9949C447.146 84.2206 447.08 84.4703 447.08 84.7438ZM440.401 79.286L440.401 78.732C440.401 78.3216 440.488 77.9454 440.663 77.6035C440.837 77.2615 441.09 76.9879 441.422 76.7827C441.753 76.5741 442.155 76.4698 442.627 76.4698C443.109 76.4698 443.515 76.5741 443.843 76.7827C444.175 76.9879 444.424 77.2615 444.592 77.6035C444.759 77.9454 444.843 78.3216 444.843 78.732L444.843 79.286C444.843 79.6963 444.758 80.0725 444.587 80.4145C444.419 80.753 444.169 81.0249 443.838 81.2301C443.506 81.4353 443.103 81.5378 442.627 81.5378C442.145 81.5378 441.738 81.4353 441.406 81.2301C441.078 81.0249 440.828 80.7513 440.657 80.4093C440.486 80.0674 440.401 79.6929 440.401 79.286ZM441.75 78.732L441.75 79.286C441.75 79.5595 441.813 79.8092 441.94 80.0349C442.07 80.2572 442.299 80.3683 442.627 80.3683C442.955 80.3683 443.181 80.2572 443.304 80.0349C443.431 79.8092 443.494 79.5595 443.494 79.286L443.494 78.732C443.494 78.4584 443.434 78.2088 443.315 77.9831C443.195 77.7539 442.966 77.6394 442.627 77.6394C442.302 77.6394 442.075 77.7539 441.945 77.9831C441.815 78.2122 441.75 78.4618 441.75 78.732ZM440.986 87.2676L448.208 76.7622L449.491 76.7622L442.268 87.2676L440.986 87.2676Z" fill="black"/>
</g>
<g filter="url(#filter2_d_2262_8612)">
<rect x="132" y="201.893" width="306.429" height="40.0714" rx="6.28571" fill="#00E266"/>
<rect x="132" y="201.893" width="306.429" height="40.0714" rx="6.28571" fill="url(#paint3_linear_2262_8612)" fill-opacity="0.5"/>
<path d="M250.55 227.428H248.561L252.182 217.142H254.482L258.108 227.428H256.119L253.372 219.251H253.292L250.55 227.428ZM250.615 223.395H256.039V224.891H250.615V223.395ZM259.383 230.321V219.713H261.171V220.989H261.276C261.37 220.802 261.502 220.602 261.673 220.391C261.844 220.177 262.075 219.995 262.366 219.844C262.657 219.69 263.029 219.613 263.481 219.613C264.077 219.613 264.614 219.765 265.093 220.07C265.575 220.371 265.957 220.818 266.238 221.411C266.523 222 266.665 222.723 266.665 223.581C266.665 224.428 266.526 225.148 266.248 225.74C265.97 226.333 265.592 226.785 265.113 227.096C264.634 227.408 264.092 227.563 263.486 227.563C263.044 227.563 262.677 227.49 262.386 227.342C262.095 227.195 261.86 227.018 261.683 226.81C261.509 226.599 261.373 226.4 261.276 226.212H261.201V230.321H259.383ZM261.166 223.571C261.166 224.069 261.236 224.506 261.377 224.881C261.521 225.256 261.726 225.549 261.994 225.76C262.265 225.968 262.594 226.072 262.979 226.072C263.38 226.072 263.717 225.965 263.988 225.75C264.259 225.533 264.464 225.236 264.601 224.861C264.741 224.483 264.812 224.053 264.812 223.571C264.812 223.092 264.743 222.667 264.606 222.295C264.469 221.923 264.264 221.632 263.993 221.421C263.722 221.21 263.384 221.105 262.979 221.105C262.59 221.105 262.26 221.207 261.989 221.411C261.718 221.615 261.512 221.902 261.372 222.27C261.234 222.638 261.166 223.072 261.166 223.571ZM268.222 230.321V219.713H270.01V220.989H270.115C270.209 220.802 270.341 220.602 270.512 220.391C270.683 220.177 270.914 219.995 271.205 219.844C271.497 219.69 271.868 219.613 272.32 219.613C272.916 219.613 273.454 219.765 273.932 220.07C274.414 220.371 274.796 220.818 275.077 221.411C275.362 222 275.504 222.723 275.504 223.581C275.504 224.428 275.365 225.148 275.087 225.74C274.81 226.333 274.431 226.785 273.952 227.096C273.474 227.408 272.931 227.563 272.325 227.563C271.883 227.563 271.517 227.49 271.225 227.342C270.934 227.195 270.7 227.018 270.522 226.81C270.348 226.599 270.212 226.4 270.115 226.212H270.04V230.321H268.222ZM270.005 223.571C270.005 224.069 270.075 224.506 270.216 224.881C270.36 225.256 270.566 225.549 270.834 225.76C271.105 225.968 271.433 226.072 271.818 226.072C272.22 226.072 272.556 225.965 272.827 225.75C273.099 225.533 273.303 225.236 273.44 224.861C273.581 224.483 273.651 224.053 273.651 223.571C273.651 223.092 273.582 222.667 273.445 222.295C273.308 221.923 273.104 221.632 272.832 221.421C272.561 221.21 272.223 221.105 271.818 221.105C271.43 221.105 271.1 221.207 270.829 221.411C270.557 221.615 270.351 221.902 270.211 222.27C270.074 222.638 270.005 223.072 270.005 223.571ZM278.879 217.142V227.428H277.061V217.142H278.879ZM281.879 230.321C281.631 230.321 281.402 230.301 281.191 230.26C280.983 230.223 280.818 230.18 280.694 230.13L281.116 228.713C281.38 228.79 281.616 228.827 281.824 228.824C282.031 228.821 282.214 228.755 282.371 228.628C282.532 228.504 282.667 228.297 282.778 228.005L282.934 227.588L280.136 219.713H282.065L283.843 225.539H283.923L285.706 219.713H287.64L284.551 228.362C284.407 228.77 284.216 229.12 283.978 229.412C283.741 229.706 283.449 229.931 283.104 230.085C282.763 230.242 282.354 230.321 281.879 230.321ZM300.939 217.142V227.428H299.281L294.435 220.422H294.349V227.428H292.486V217.142H294.153L298.995 224.153H299.085V217.142H300.939ZM306.253 227.578C305.5 227.578 304.847 227.413 304.295 227.081C303.742 226.75 303.314 226.286 303.009 225.69C302.708 225.094 302.557 224.398 302.557 223.601C302.557 222.804 302.708 222.106 303.009 221.506C303.314 220.907 303.742 220.442 304.295 220.11C304.847 219.779 305.5 219.613 306.253 219.613C307.007 219.613 307.66 219.779 308.212 220.11C308.765 220.442 309.192 220.907 309.493 221.506C309.798 222.106 309.95 222.804 309.95 223.601C309.95 224.398 309.798 225.094 309.493 225.69C309.192 226.286 308.765 226.75 308.212 227.081C307.66 227.413 307.007 227.578 306.253 227.578ZM306.264 226.122C306.672 226.122 307.014 226.01 307.288 225.785C307.563 225.558 307.767 225.253 307.901 224.871C308.038 224.49 308.107 224.064 308.107 223.596C308.107 223.124 308.038 222.697 307.901 222.315C307.767 221.93 307.563 221.624 307.288 221.396C307.014 221.168 306.672 221.054 306.264 221.054C305.845 221.054 305.497 221.168 305.219 221.396C304.944 221.624 304.738 221.93 304.601 222.315C304.467 222.697 304.4 223.124 304.4 223.596C304.4 224.064 304.467 224.49 304.601 224.871C304.738 225.253 304.944 225.558 305.219 225.785C305.497 226.01 305.845 226.122 306.264 226.122ZM312.864 227.428L310.684 219.713H312.538L313.894 225.138H313.964L315.35 219.713H317.183L318.569 225.107H318.645L319.981 219.713H321.839L319.654 227.428H317.761L316.314 222.215H316.209L314.763 227.428H312.864Z" fill="black"/>
</g>
<path d="M339 232.252C338.998 232.584 338.889 232.907 338.689 233.172C338.489 233.437 338.21 233.631 337.891 233.726L337.872 233.732L330.211 235.877L328.066 243.537L328.06 243.557C327.966 243.875 327.772 244.155 327.506 244.354C327.241 244.554 326.919 244.663 326.587 244.666H326.557C326.232 244.669 325.914 244.569 325.648 244.381C325.382 244.193 325.183 243.926 325.077 243.618L318.67 226.343C318.668 226.338 318.666 226.333 318.665 226.327C318.569 226.049 318.553 225.75 318.619 225.463C318.685 225.176 318.83 224.914 319.038 224.706C319.246 224.498 319.508 224.352 319.794 224.285C320.081 224.218 320.38 224.233 320.659 224.328L320.674 224.333L337.952 230.743C338.265 230.85 338.535 231.054 338.724 231.326C338.913 231.597 339.009 231.922 339 232.252Z" fill="#343330"/>
<defs>
<filter id="filter0_d_2262_8612" x="126.071" y="85.1869" width="319.187" height="102.624" filterUnits="userSpaceOnUse" color-interpolation-filters="sRGB">
<feFlood flood-opacity="0" result="BackgroundImageFix"/>
<feColorMatrix in="SourceAlpha" type="matrix" values="0 0 0 0 0 0 0 0 0 0 0 0 0 0 0 0 0 0 127 0" result="hardAlpha"/>
<feOffset/>
<feGaussianBlur stdDeviation="3.14286"/>
<feComposite in2="hardAlpha" operator="out"/>
<feColorMatrix type="matrix" values="0 0 0 0 0 0 0 0 0 0 0 0 0 0 0 0 0 0 0.15 0"/>
<feBlend mode="normal" in2="BackgroundImageFix" result="effect1_dropShadow_2262_8612"/>
<feBlend mode="normal" in="SourceGraphic" in2="effect1_dropShadow_2262_8612" result="shape"/>
</filter>
<filter id="filter1_d_2262_8612" x="388.383" y="36.5915" width="94.0858" height="94.0865" filterUnits="userSpaceOnUse" color-interpolation-filters="sRGB">
<feFlood flood-opacity="0" result="BackgroundImageFix"/>
<feColorMatrix in="SourceAlpha" type="matrix" values="0 0 0 0 0 0 0 0 0 0 0 0 0 0 0 0 0 0 127 0" result="hardAlpha"/>
<feOffset/>
<feGaussianBlur stdDeviation="1.57143"/>
<feComposite in2="hardAlpha" operator="out"/>
<feColorMatrix type="matrix" values="0 0 0 0 0 0 0 0 0 0 0 0 0 0 0 0 0 0 0.25 0"/>
<feBlend mode="normal" in2="BackgroundImageFix" result="effect1_dropShadow_2262_8612"/>
<feBlend mode="normal" in="SourceGraphic" in2="effect1_dropShadow_2262_8612" result="shape"/>
</filter>
<filter id="filter2_d_2262_8612" x="124" y="193.893" width="322.429" height="56.0723" filterUnits="userSpaceOnUse" color-interpolation-filters="sRGB">
<feFlood flood-opacity="0" result="BackgroundImageFix"/>
<feColorMatrix in="SourceAlpha" type="matrix" values="0 0 0 0 0 0 0 0 0 0 0 0 0 0 0 0 0 0 127 0" result="hardAlpha"/>
<feOffset/>
<feGaussianBlur stdDeviation="4"/>
<feComposite in2="hardAlpha" operator="out"/>
<feColorMatrix type="matrix" values="0 0 0 0 0 0 0 0 0 0 0 0 0 0 0 0 0 0 0.15 0"/>
<feBlend mode="normal" in2="BackgroundImageFix" result="effect1_dropShadow_2262_8612"/>
<feBlend mode="normal" in="SourceGraphic" in2="effect1_dropShadow_2262_8612" result="shape"/>
</filter>
<linearGradient id="paint0_linear_2262_8612" x1="298" y1="0" x2="298" y2="275" gradientUnits="userSpaceOnUse">
<stop stop-color="#D9D9D9"/>
<stop offset="1" stop-color="white"/>
</linearGradient>
<linearGradient id="paint1_linear_2262_8612" x1="468.47" y1="99.773" x2="443.174" y2="50.4034" gradientUnits="userSpaceOnUse">
<stop stop-color="#2CA965" stop-opacity="0.78"/>
<stop offset="1" stop-color="#2CA965"/>
</linearGradient>
<linearGradient id="paint2_linear_2262_8612" x1="448.281" y1="86.2504" x2="425.712" y2="108.819" gradientUnits="userSpaceOnUse">
<stop stop-color="#2CA965"/>
<stop offset="1" stop-color="#2CA965" stop-opacity="0"/>
</linearGradient>
<linearGradient id="paint3_linear_2262_8612" x1="132" y1="221.928" x2="159.09" y2="308.918" gradientUnits="userSpaceOnUse">
<stop stop-color="white" stop-opacity="0"/>
<stop offset="0.425" stop-color="white" stop-opacity="0.5"/>
<stop offset="0.559361" stop-color="white"/>
<stop offset="0.66" stop-color="white" stop-opacity="0.5"/>
<stop offset="1" stop-color="white" stop-opacity="0"/>
</linearGradient>
<clipPath id="clip0_2262_8612">
<rect width="30" height="25" fill="white" transform="translate(160 131)"/>
</clipPath>
<clipPath id="clip1_2262_8612">
<rect width="106.941" height="106.941" fill="white" transform="translate(381.65 29.8574)"/>
</clipPath>
</defs>
</svg>
