<svg width="596" height="275" viewBox="0 0 596 275" fill="none" xmlns="http://www.w3.org/2000/svg">
<rect x="0.392857" y="0.392857" width="595.214" height="274.214" rx="12.1786" fill="url(#paint0_linear_2262_8524)" fill-opacity="0.15"/>
<rect x="0.392857" y="0.392857" width="595.214" height="274.214" rx="12.1786" stroke="#D9D9D9" stroke-width="0.785714"/>
<g filter="url(#filter0_d_2262_8524)">
<rect x="103.394" y="68.9961" width="390.284" height="137.005" rx="14.4216" fill="white"/>
<rect x="103.844" y="69.4468" width="389.383" height="136.104" rx="13.9709" stroke="#00E266" stroke-width="0.901349"/>
<path d="M125.49 98.4499H127.92L131.624 104.896H131.777L135.481 98.4499H137.911L132.767 107.063V112.629H130.634V107.063L125.49 98.4499ZM142.492 112.844C141.495 112.844 140.625 112.615 139.882 112.158C139.139 111.701 138.562 111.062 138.151 110.24C137.74 109.419 137.535 108.459 137.535 107.36C137.535 106.257 137.74 105.292 138.151 104.466C138.562 103.64 139.139 102.999 139.882 102.542C140.625 102.085 141.495 101.856 142.492 101.856C143.489 101.856 144.359 102.085 145.102 102.542C145.845 102.999 146.422 103.64 146.833 104.466C147.244 105.292 147.449 106.257 147.449 107.36C147.449 108.459 147.244 109.419 146.833 110.24C146.422 111.062 145.845 111.701 145.102 112.158C144.359 112.615 143.489 112.844 142.492 112.844ZM142.499 111.106C143.145 111.106 143.681 110.935 144.105 110.593C144.53 110.252 144.844 109.797 145.047 109.23C145.255 108.662 145.358 108.036 145.358 107.353C145.358 106.675 145.255 106.052 145.047 105.484C144.844 104.912 144.53 104.452 144.105 104.106C143.681 103.76 143.145 103.587 142.499 103.587C141.848 103.587 141.308 103.76 140.879 104.106C140.454 104.452 140.138 104.912 139.931 105.484C139.727 106.052 139.626 106.675 139.626 107.353C139.626 108.036 139.727 108.662 139.931 109.23C140.138 109.797 140.454 110.252 140.879 110.593C141.308 110.935 141.848 111.106 142.499 111.106ZM156.496 108.219V101.995H158.573V112.629H156.538V110.787H156.427C156.183 111.355 155.79 111.828 155.25 112.207C154.715 112.58 154.048 112.767 153.249 112.767C152.566 112.767 151.962 112.617 151.435 112.317C150.914 112.013 150.503 111.563 150.203 110.967C149.908 110.372 149.76 109.636 149.76 108.759V101.995H151.83V108.51C151.83 109.234 152.031 109.811 152.432 110.24C152.834 110.67 153.355 110.884 153.997 110.884C154.385 110.884 154.77 110.787 155.153 110.593C155.541 110.4 155.862 110.106 156.116 109.714C156.374 109.322 156.501 108.823 156.496 108.219ZM161.355 112.629V101.995H163.356V103.684H163.466C163.66 103.112 164.002 102.662 164.491 102.334C164.985 102.002 165.543 101.835 166.167 101.835C166.296 101.835 166.448 101.84 166.624 101.849C166.804 101.858 166.944 101.87 167.046 101.884V103.864C166.963 103.841 166.815 103.815 166.603 103.788C166.39 103.755 166.178 103.739 165.966 103.739C165.477 103.739 165.04 103.843 164.657 104.051C164.279 104.254 163.979 104.538 163.757 104.902C163.536 105.262 163.425 105.673 163.425 106.135V112.629H161.355ZM174.163 112.629V98.4499H179.217C180.32 98.4499 181.234 98.6506 181.959 99.0522C182.683 99.4538 183.226 100.003 183.586 100.7C183.946 101.392 184.126 102.172 184.126 103.04C184.126 103.912 183.943 104.697 183.579 105.394C183.219 106.086 182.674 106.636 181.945 107.042C181.22 107.443 180.309 107.644 179.21 107.644H175.735V105.83H179.016C179.713 105.83 180.279 105.71 180.713 105.47C181.146 105.226 181.465 104.893 181.668 104.473C181.871 104.053 181.973 103.575 181.973 103.04C181.973 102.505 181.871 102.029 181.668 101.614C181.465 101.198 181.144 100.873 180.706 100.638C180.272 100.402 179.699 100.285 178.989 100.285H176.302V112.629H174.163ZM186.468 112.629V101.995H188.468V103.684H188.579C188.773 103.112 189.115 102.662 189.604 102.334C190.098 102.002 190.656 101.835 191.279 101.835C191.409 101.835 191.561 101.84 191.736 101.849C191.916 101.858 192.057 101.87 192.159 101.884V103.864C192.076 103.841 191.928 103.815 191.715 103.788C191.503 103.755 191.291 103.739 191.079 103.739C190.589 103.739 190.153 103.843 189.77 104.051C189.392 104.254 189.092 104.538 188.87 104.902C188.648 105.262 188.538 105.673 188.538 106.135V112.629H186.468ZM198.152 112.844C197.105 112.844 196.202 112.62 195.445 112.172C194.693 111.72 194.112 111.085 193.701 110.268C193.295 109.446 193.092 108.484 193.092 107.381C193.092 106.292 193.295 105.332 193.701 104.501C194.112 103.67 194.684 103.022 195.418 102.555C196.156 102.089 197.019 101.856 198.007 101.856C198.607 101.856 199.189 101.955 199.752 102.154C200.315 102.352 200.82 102.664 201.268 103.089C201.716 103.513 202.069 104.065 202.327 104.743C202.586 105.417 202.715 106.236 202.715 107.201V107.935H194.262V106.384H200.686C200.686 105.839 200.576 105.357 200.354 104.937C200.133 104.512 199.821 104.178 199.419 103.933C199.023 103.689 198.556 103.566 198.021 103.566C197.439 103.566 196.932 103.709 196.498 103.995C196.069 104.277 195.736 104.646 195.501 105.103C195.27 105.556 195.155 106.047 195.155 106.578V107.789C195.155 108.5 195.279 109.105 195.529 109.603C195.782 110.102 196.135 110.483 196.588 110.746C197.04 111.004 197.569 111.133 198.173 111.133C198.566 111.133 198.923 111.078 199.246 110.967C199.569 110.852 199.849 110.681 200.084 110.455C200.319 110.229 200.5 109.95 200.624 109.617L202.583 109.97C202.427 110.547 202.145 111.053 201.739 111.487C201.337 111.916 200.832 112.25 200.223 112.49C199.618 112.726 198.928 112.844 198.152 112.844ZM210.073 101.995V103.656H204.063V101.995H210.073ZM205.711 112.629V100.762C205.711 100.098 205.856 99.5461 206.147 99.1076C206.438 98.6645 206.823 98.3345 207.303 98.1175C207.783 97.896 208.305 97.7852 208.868 97.7852C209.284 97.7852 209.639 97.8198 209.934 97.8891C210.23 97.9537 210.449 98.0137 210.592 98.0691L210.107 99.7445C210.01 99.7168 209.886 99.6845 209.734 99.6476C209.581 99.6061 209.397 99.5853 209.18 99.5853C208.677 99.5853 208.317 99.7099 208.1 99.9592C207.887 100.208 207.781 100.568 207.781 101.039V112.629H205.711ZM216.373 112.844C215.325 112.844 214.423 112.62 213.666 112.172C212.914 111.72 212.332 111.085 211.921 110.268C211.515 109.446 211.312 108.484 211.312 107.381C211.312 106.292 211.515 105.332 211.921 104.501C212.332 103.67 212.904 103.022 213.638 102.555C214.377 102.089 215.24 101.856 216.228 101.856C216.828 101.856 217.409 101.955 217.972 102.154C218.535 102.352 219.041 102.664 219.489 103.089C219.936 103.513 220.289 104.065 220.548 104.743C220.806 105.417 220.936 106.236 220.936 107.201V107.935H212.482V106.384H218.907C218.907 105.839 218.796 105.357 218.575 104.937C218.353 104.512 218.042 104.178 217.64 103.933C217.243 103.689 216.777 103.566 216.241 103.566C215.66 103.566 215.152 103.709 214.718 103.995C214.289 104.277 213.957 104.646 213.721 105.103C213.491 105.556 213.375 106.047 213.375 106.578V107.789C213.375 108.5 213.5 109.105 213.749 109.603C214.003 110.102 214.356 110.483 214.808 110.746C215.261 111.004 215.789 111.133 216.394 111.133C216.786 111.133 217.144 111.078 217.467 110.967C217.79 110.852 218.069 110.681 218.305 110.455C218.54 110.229 218.72 109.95 218.845 109.617L220.804 109.97C220.647 110.547 220.365 111.053 219.959 111.487C219.558 111.916 219.052 112.25 218.443 112.49C217.838 112.726 217.148 112.844 216.373 112.844ZM223.232 112.629V101.995H225.233V103.684H225.344C225.538 103.112 225.879 102.662 226.369 102.334C226.862 102.002 227.421 101.835 228.044 101.835C228.173 101.835 228.326 101.84 228.501 101.849C228.681 101.858 228.822 101.87 228.923 101.884V103.864C228.84 103.841 228.693 103.815 228.48 103.788C228.268 103.755 228.056 103.739 227.843 103.739C227.354 103.739 226.918 103.843 226.535 104.051C226.156 104.254 225.856 104.538 225.635 104.902C225.413 105.262 225.302 105.673 225.302 106.135V112.629H223.232ZM234.917 112.844C233.87 112.844 232.967 112.62 232.21 112.172C231.458 111.72 230.876 111.085 230.466 110.268C230.059 109.446 229.856 108.484 229.856 107.381C229.856 106.292 230.059 105.332 230.466 104.501C230.876 103.67 231.449 103.022 232.183 102.555C232.921 102.089 233.784 101.856 234.772 101.856C235.372 101.856 235.953 101.955 236.517 102.154C237.08 102.352 237.585 102.664 238.033 103.089C238.48 103.513 238.834 104.065 239.092 104.743C239.35 105.417 239.48 106.236 239.48 107.201V107.935H231.026V106.384H237.451C237.451 105.839 237.34 105.357 237.119 104.937C236.897 104.512 236.586 104.178 236.184 103.933C235.787 103.689 235.321 103.566 234.786 103.566C234.204 103.566 233.696 103.709 233.263 103.995C232.833 104.277 232.501 104.646 232.266 105.103C232.035 105.556 231.919 106.047 231.919 106.578V107.789C231.919 108.5 232.044 109.105 232.293 109.603C232.547 110.102 232.9 110.483 233.353 110.746C233.805 111.004 234.333 111.133 234.938 111.133C235.33 111.133 235.688 111.078 236.011 110.967C236.334 110.852 236.613 110.681 236.849 110.455C237.084 110.229 237.264 109.95 237.389 109.617L239.348 109.97C239.191 110.547 238.91 111.053 238.504 111.487C238.102 111.916 237.597 112.25 236.987 112.49C236.383 112.726 235.693 112.844 234.917 112.844ZM243.847 106.315V112.629H241.777V101.995H243.764V103.725H243.895C244.14 103.162 244.523 102.71 245.044 102.368C245.571 102.027 246.233 101.856 247.031 101.856C247.756 101.856 248.391 102.008 248.935 102.313C249.48 102.613 249.902 103.061 250.202 103.656C250.502 104.252 250.652 104.988 250.652 105.865V112.629H248.582V106.114C248.582 105.343 248.381 104.741 247.98 104.307C247.578 103.869 247.027 103.649 246.325 103.649C245.845 103.649 245.418 103.753 245.044 103.961C244.675 104.169 244.382 104.473 244.165 104.875C243.953 105.272 243.847 105.752 243.847 106.315ZM257.908 112.844C256.879 112.844 255.993 112.61 255.249 112.144C254.511 111.673 253.943 111.025 253.546 110.199C253.149 109.373 252.951 108.426 252.951 107.36C252.951 106.28 253.154 105.327 253.56 104.501C253.966 103.67 254.539 103.022 255.277 102.555C256.016 102.089 256.886 101.856 257.887 101.856C258.695 101.856 259.415 102.006 260.047 102.306C260.68 102.602 261.19 103.017 261.577 103.552C261.97 104.088 262.203 104.713 262.277 105.429H260.262C260.151 104.93 259.897 104.501 259.5 104.141C259.108 103.781 258.582 103.601 257.922 103.601C257.345 103.601 256.839 103.753 256.406 104.058C255.976 104.358 255.642 104.787 255.402 105.346C255.162 105.899 255.042 106.555 255.042 107.312C255.042 108.087 255.159 108.756 255.395 109.32C255.63 109.883 255.963 110.319 256.392 110.628C256.826 110.937 257.336 111.092 257.922 111.092C258.314 111.092 258.67 111.02 258.988 110.877C259.311 110.73 259.581 110.52 259.798 110.247C260.02 109.975 260.174 109.647 260.262 109.264H262.277C262.203 109.952 261.979 110.566 261.605 111.106C261.231 111.646 260.73 112.07 260.103 112.38C259.48 112.689 258.748 112.844 257.908 112.844ZM269.074 112.844C268.026 112.844 267.124 112.62 266.367 112.172C265.614 111.72 265.033 111.085 264.622 110.268C264.216 109.446 264.013 108.484 264.013 107.381C264.013 106.292 264.216 105.332 264.622 104.501C265.033 103.67 265.605 103.022 266.339 102.555C267.077 102.089 267.941 101.856 268.928 101.856C269.528 101.856 270.11 101.955 270.673 102.154C271.236 102.352 271.741 102.664 272.189 103.089C272.637 103.513 272.99 104.065 273.248 104.743C273.507 105.417 273.636 106.236 273.636 107.201V107.935H265.183V106.384H271.608C271.608 105.839 271.497 105.357 271.275 104.937C271.054 104.512 270.742 104.178 270.341 103.933C269.944 103.689 269.477 103.566 268.942 103.566C268.361 103.566 267.853 103.709 267.419 103.995C266.99 104.277 266.657 104.646 266.422 105.103C266.191 105.556 266.076 106.047 266.076 106.578V107.789C266.076 108.5 266.2 109.105 266.45 109.603C266.704 110.102 267.057 110.483 267.509 110.746C267.961 111.004 268.49 111.133 269.094 111.133C269.487 111.133 269.844 111.078 270.168 110.967C270.491 110.852 270.77 110.681 271.005 110.455C271.241 110.229 271.421 109.95 271.545 109.617L273.505 109.97C273.348 110.547 273.066 111.053 272.66 111.487C272.258 111.916 271.753 112.25 271.144 112.49C270.539 112.726 269.849 112.844 269.074 112.844ZM283.902 104.591L282.026 104.923C281.947 104.683 281.822 104.455 281.652 104.238C281.485 104.021 281.259 103.843 280.973 103.705C280.687 103.566 280.329 103.497 279.9 103.497C279.314 103.497 278.825 103.629 278.432 103.892C278.04 104.15 277.844 104.485 277.844 104.896C277.844 105.251 277.975 105.537 278.238 105.754C278.502 105.971 278.926 106.149 279.512 106.287L281.202 106.675C282.18 106.901 282.909 107.249 283.389 107.72C283.869 108.191 284.109 108.803 284.109 109.555C284.109 110.192 283.925 110.76 283.556 111.258C283.191 111.752 282.681 112.14 282.026 112.421C281.375 112.703 280.62 112.844 279.762 112.844C278.571 112.844 277.599 112.59 276.847 112.082C276.094 111.57 275.633 110.843 275.462 109.901L277.463 109.596C277.588 110.118 277.844 110.513 278.232 110.78C278.619 111.043 279.125 111.175 279.748 111.175C280.426 111.175 280.969 111.034 281.375 110.753C281.781 110.467 281.984 110.118 281.984 109.707C281.984 109.375 281.859 109.096 281.61 108.87C281.365 108.643 280.989 108.473 280.482 108.357L278.682 107.963C277.689 107.736 276.955 107.376 276.48 106.883C276.009 106.389 275.774 105.763 275.774 105.006C275.774 104.379 275.949 103.829 276.3 103.359C276.651 102.888 277.135 102.521 277.754 102.258C278.372 101.99 279.081 101.856 279.879 101.856C281.029 101.856 281.933 102.105 282.593 102.604C283.253 103.098 283.689 103.76 283.902 104.591Z" fill="black"/>
<rect x="125.567" y="141.803" width="146.019" height="42.1831" rx="8.11214" fill="#D9D9D9" fill-opacity="0.2"/>
<rect x="125.567" y="141.803" width="146.019" height="42.1831" rx="8.11214" stroke="#D9D9D9" stroke-width="1.08162"/>
<rect x="142.332" y="152.078" width="21.6324" height="21.6324" rx="2.16324" fill="#00E266"/>
<path d="M158.995 161.014L152.485 167.524C152.333 167.676 152.126 167.761 151.911 167.761C151.696 167.761 151.49 167.676 151.338 167.524L147.707 163.874C147.555 163.721 147.469 163.515 147.469 163.3C147.469 163.085 147.555 162.879 147.707 162.727L148.721 161.713C148.873 161.562 149.079 161.477 149.293 161.477C149.508 161.477 149.713 161.562 149.865 161.713L151.932 163.717L156.837 158.871C156.989 158.72 157.195 158.635 157.41 158.635C157.625 158.635 157.831 158.72 157.983 158.871L158.994 159.862C159.07 159.937 159.131 160.027 159.172 160.126C159.213 160.225 159.234 160.331 159.234 160.438C159.234 160.545 159.213 160.651 159.172 160.75C159.131 160.849 159.071 160.939 158.995 161.014Z" fill="white"/>
<path d="M174.142 168.895V156.308H181.688V157.66H175.666V161.913H181.123V163.265H175.666V168.895H174.142ZM189.459 165.035V159.455H190.91V168.895H189.459V167.297H189.361C189.14 167.776 188.796 168.184 188.329 168.52C187.861 168.852 187.272 169.017 186.559 169.017C185.969 169.017 185.444 168.888 184.985 168.63C184.527 168.368 184.166 167.975 183.904 167.45C183.642 166.922 183.51 166.256 183.51 165.453V159.455H184.961V165.355C184.961 166.043 185.153 166.592 185.538 167.002C185.928 167.411 186.423 167.616 187.026 167.616C187.386 167.616 187.753 167.524 188.126 167.34C188.503 167.155 188.818 166.873 189.072 166.492C189.33 166.111 189.459 165.625 189.459 165.035ZM195.016 156.308V168.895H193.566V156.308H195.016ZM199.123 156.308V168.895H197.673V156.308H199.123ZM207.188 162.823V164.175H201.681V162.823H207.188ZM207.964 157.66V156.308H217.403V157.66H213.445V168.895H211.921V157.66H207.964ZM219.559 168.895V159.455H221.009V168.895H219.559ZM220.296 157.882C220.014 157.882 219.77 157.785 219.565 157.593C219.364 157.4 219.264 157.169 219.264 156.898C219.264 156.628 219.364 156.397 219.565 156.204C219.77 156.011 220.014 155.915 220.296 155.915C220.579 155.915 220.821 156.011 221.021 156.204C221.226 156.397 221.329 156.628 221.329 156.898C221.329 157.169 221.226 157.4 221.021 157.593C220.821 157.785 220.579 157.882 220.296 157.882ZM223.666 168.895V159.455H225.067V160.93H225.19C225.386 160.426 225.704 160.035 226.142 159.756C226.581 159.473 227.107 159.332 227.722 159.332C228.344 159.332 228.863 159.473 229.276 159.756C229.694 160.035 230.02 160.426 230.254 160.93H230.352C230.594 160.442 230.956 160.055 231.44 159.768C231.923 159.477 232.503 159.332 233.179 159.332C234.023 159.332 234.713 159.596 235.25 160.125C235.787 160.649 236.055 161.467 236.055 162.577V168.895H234.605V162.577C234.605 161.88 234.414 161.383 234.033 161.084C233.652 160.784 233.203 160.635 232.687 160.635C232.023 160.635 231.509 160.836 231.145 161.237C230.78 161.635 230.598 162.139 230.598 162.749V168.895H229.123V162.429C229.123 161.893 228.949 161.46 228.6 161.133C228.252 160.801 227.804 160.635 227.255 160.635C226.878 160.635 226.525 160.735 226.198 160.936C225.874 161.137 225.612 161.415 225.411 161.772C225.214 162.124 225.116 162.532 225.116 162.995V168.895H223.666ZM242.665 169.091C241.755 169.091 240.97 168.89 240.311 168.489C239.655 168.083 239.149 167.518 238.793 166.793C238.44 166.063 238.264 165.215 238.264 164.248C238.264 163.282 238.44 162.429 238.793 161.692C239.149 160.95 239.645 160.373 240.28 159.959C240.919 159.541 241.665 159.332 242.517 159.332C243.009 159.332 243.494 159.414 243.974 159.578C244.453 159.742 244.889 160.008 245.283 160.377C245.676 160.741 245.989 161.225 246.223 161.827C246.456 162.429 246.573 163.171 246.573 164.052V164.666H239.297V163.413H245.098C245.098 162.88 244.992 162.405 244.779 161.987C244.57 161.569 244.271 161.239 243.881 160.997C243.496 160.756 243.041 160.635 242.517 160.635C241.939 160.635 241.44 160.778 241.018 161.065C240.6 161.348 240.278 161.717 240.053 162.171C239.827 162.626 239.715 163.114 239.715 163.634V164.47C239.715 165.183 239.838 165.787 240.083 166.283C240.333 166.774 240.68 167.149 241.122 167.407C241.564 167.661 242.079 167.788 242.665 167.788C243.046 167.788 243.39 167.735 243.697 167.629C244.008 167.518 244.277 167.354 244.502 167.137C244.727 166.916 244.902 166.641 245.024 166.313L246.426 166.707C246.278 167.182 246.03 167.6 245.682 167.96C245.334 168.317 244.904 168.595 244.391 168.796C243.879 168.993 243.304 169.091 242.665 169.091Z" fill="black"/>
<rect x="289.973" y="141.803" width="146.019" height="42.1831" rx="8.11214" fill="#D9D9D9" fill-opacity="0.2"/>
<rect x="289.973" y="141.803" width="146.019" height="42.1831" rx="8.11214" stroke="#D9D9D9" stroke-width="1.08162"/>
<rect x="307.279" y="152.619" width="20.5508" height="20.5508" rx="1.62243" stroke="#00E266" stroke-width="1.08162"/>
<path d="M349.167 162.601C349.167 163.929 348.927 165.076 348.448 166.043C347.969 167.01 347.311 167.756 346.475 168.28C345.64 168.804 344.685 169.067 343.611 169.067C342.538 169.067 341.583 168.804 340.748 168.28C339.912 167.756 339.254 167.01 338.775 166.043C338.296 165.076 338.056 163.929 338.056 162.601C338.056 161.274 338.296 160.127 338.775 159.16C339.254 158.193 339.912 157.447 340.748 156.923C341.583 156.399 342.538 156.136 343.611 156.136C344.685 156.136 345.64 156.399 346.475 156.923C347.311 157.447 347.969 158.193 348.448 159.16C348.927 160.127 349.167 161.274 349.167 162.601ZM347.692 162.601C347.692 161.512 347.51 160.592 347.145 159.842C346.785 159.092 346.295 158.525 345.676 158.14C345.062 157.755 344.374 157.562 343.611 157.562C342.849 157.562 342.159 157.755 341.54 158.14C340.926 158.525 340.436 159.092 340.072 159.842C339.711 160.592 339.531 161.512 339.531 162.601C339.531 163.691 339.711 164.611 340.072 165.361C340.436 166.111 340.926 166.678 341.54 167.063C342.159 167.448 342.849 167.641 343.611 167.641C344.374 167.641 345.062 167.448 345.676 167.063C346.295 166.678 346.785 166.111 347.145 165.361C347.51 164.611 347.692 163.691 347.692 162.601ZM352.983 163.216V168.895H351.533V159.455H352.934V160.93H353.057C353.278 160.451 353.614 160.065 354.065 159.775C354.516 159.48 355.098 159.332 355.81 159.332C356.45 159.332 357.009 159.463 357.488 159.725C357.968 159.983 358.34 160.377 358.607 160.905C358.873 161.43 359.006 162.093 359.006 162.896V168.895H357.556V162.995C357.556 162.253 357.363 161.676 356.978 161.262C356.593 160.844 356.064 160.635 355.393 160.635C354.93 160.635 354.516 160.735 354.151 160.936C353.791 161.137 353.506 161.43 353.297 161.815C353.088 162.2 352.983 162.667 352.983 163.216ZM368.343 161.569L367.04 161.938C366.958 161.721 366.837 161.51 366.677 161.305C366.522 161.096 366.309 160.924 366.038 160.789C365.768 160.653 365.422 160.586 365 160.586C364.422 160.586 363.94 160.719 363.555 160.985C363.174 161.247 362.984 161.581 362.984 161.987C362.984 162.347 363.115 162.632 363.377 162.841C363.639 163.05 364.049 163.224 364.606 163.364L366.007 163.708C366.851 163.913 367.48 164.226 367.894 164.648C368.308 165.066 368.515 165.605 368.515 166.264C368.515 166.805 368.359 167.288 368.048 167.715C367.74 168.141 367.31 168.477 366.757 168.722C366.204 168.968 365.561 169.091 364.827 169.091C363.865 169.091 363.068 168.882 362.437 168.464C361.806 168.046 361.406 167.436 361.238 166.633L362.615 166.289C362.746 166.797 362.994 167.178 363.359 167.432C363.727 167.686 364.209 167.813 364.803 167.813C365.479 167.813 366.016 167.67 366.413 167.383C366.815 167.092 367.015 166.744 367.015 166.338C367.015 166.01 366.901 165.736 366.671 165.514C366.442 165.289 366.089 165.121 365.614 165.011L364.041 164.642C363.176 164.437 362.541 164.119 362.136 163.689C361.734 163.255 361.533 162.712 361.533 162.061C361.533 161.528 361.683 161.057 361.982 160.647C362.285 160.237 362.697 159.916 363.217 159.682C363.742 159.449 364.336 159.332 365 159.332C365.934 159.332 366.667 159.537 367.2 159.947C367.736 160.356 368.117 160.897 368.343 161.569ZM370.698 168.895V159.455H372.148V168.895H370.698ZM371.436 157.882C371.153 157.882 370.909 157.785 370.704 157.593C370.503 157.4 370.403 157.169 370.403 156.898C370.403 156.628 370.503 156.397 370.704 156.204C370.909 156.011 371.153 155.915 371.436 155.915C371.718 155.915 371.96 156.011 372.161 156.204C372.366 156.397 372.468 156.628 372.468 156.898C372.468 157.169 372.366 157.4 372.161 157.593C371.96 157.785 371.718 157.882 371.436 157.882ZM378.91 159.455V160.684H374.018V159.455H378.91ZM375.444 157.193H376.894V166.19C376.894 166.6 376.954 166.907 377.073 167.112C377.195 167.313 377.351 167.448 377.54 167.518C377.732 167.583 377.935 167.616 378.148 167.616C378.308 167.616 378.439 167.608 378.541 167.592C378.644 167.571 378.726 167.555 378.787 167.543L379.082 168.845C378.984 168.882 378.847 168.919 378.67 168.956C378.494 168.997 378.271 169.017 378.001 169.017C377.591 169.017 377.189 168.929 376.796 168.753C376.407 168.577 376.083 168.309 375.825 167.948C375.571 167.588 375.444 167.133 375.444 166.584V157.193ZM384.948 169.091C384.039 169.091 383.254 168.89 382.594 168.489C381.939 168.083 381.433 167.518 381.076 166.793C380.724 166.063 380.548 165.215 380.548 164.248C380.548 163.282 380.724 162.429 381.076 161.692C381.433 160.95 381.929 160.373 382.564 159.959C383.203 159.541 383.948 159.332 384.801 159.332C385.292 159.332 385.778 159.414 386.257 159.578C386.736 159.742 387.173 160.008 387.566 160.377C387.959 160.741 388.273 161.225 388.506 161.827C388.74 162.429 388.857 163.171 388.857 164.052V164.666H381.58V163.413H387.382C387.382 162.88 387.275 162.405 387.062 161.987C386.853 161.569 386.554 161.239 386.165 160.997C385.78 160.756 385.325 160.635 384.801 160.635C384.223 160.635 383.723 160.778 383.301 161.065C382.883 161.348 382.562 161.717 382.336 162.171C382.111 162.626 381.998 163.114 381.998 163.634V164.47C381.998 165.183 382.121 165.787 382.367 166.283C382.617 166.774 382.963 167.149 383.406 167.407C383.848 167.661 384.362 167.788 384.948 167.788C385.329 167.788 385.673 167.735 385.981 167.629C386.292 167.518 386.56 167.354 386.786 167.137C387.011 166.916 387.185 166.641 387.308 166.313L388.709 166.707C388.562 167.182 388.314 167.6 387.966 167.96C387.617 168.317 387.187 168.595 386.675 168.796C386.163 168.993 385.587 169.091 384.948 169.091Z" fill="black"/>
</g>
<path d="M340.448 176.792C340.446 177.173 340.321 177.543 340.092 177.847C339.863 178.152 339.542 178.374 339.176 178.482L339.154 178.489L330.366 180.95L327.905 189.738L327.898 189.76C327.79 190.126 327.567 190.446 327.263 190.675C326.959 190.904 326.589 191.03 326.208 191.033H326.174C325.801 191.036 325.436 190.922 325.131 190.706C324.826 190.49 324.597 190.184 324.477 189.83L317.126 170.013C317.124 170.007 317.122 170.001 317.12 169.995C317.011 169.676 316.992 169.333 317.068 169.004C317.144 168.675 317.31 168.374 317.549 168.135C317.787 167.896 318.088 167.729 318.416 167.652C318.745 167.576 319.088 167.593 319.408 167.702L319.426 167.708L339.246 175.061C339.605 175.183 339.915 175.418 340.132 175.729C340.348 176.041 340.459 176.413 340.448 176.792Z" fill="#343330"/>
<defs>
<filter id="filter0_d_2262_8524" x="96.183" y="61.7853" width="404.706" height="151.427" filterUnits="userSpaceOnUse" color-interpolation-filters="sRGB">
<feFlood flood-opacity="0" result="BackgroundImageFix"/>
<feColorMatrix in="SourceAlpha" type="matrix" values="0 0 0 0 0 0 0 0 0 0 0 0 0 0 0 0 0 0 127 0" result="hardAlpha"/>
<feOffset/>
<feGaussianBlur stdDeviation="3.6054"/>
<feComposite in2="hardAlpha" operator="out"/>
<feColorMatrix type="matrix" values="0 0 0 0 0 0 0 0 0 0 0 0 0 0 0 0 0 0 0.15 0"/>
<feBlend mode="normal" in2="BackgroundImageFix" result="effect1_dropShadow_2262_8524"/>
<feBlend mode="normal" in="SourceGraphic" in2="effect1_dropShadow_2262_8524" result="shape"/>
</filter>
<linearGradient id="paint0_linear_2262_8524" x1="298" y1="0" x2="298" y2="275" gradientUnits="userSpaceOnUse">
<stop stop-color="#D9D9D9"/>
<stop offset="1" stop-color="white"/>
</linearGradient>
</defs>
</svg>
