<svg width="596" height="275" viewBox="0 0 596 275" fill="none" xmlns="http://www.w3.org/2000/svg">
<rect x="0.392857" y="0.392857" width="595.214" height="274.214" rx="12.1786" fill="url(#paint0_linear_2262_8536)" fill-opacity="0.15"/>
<rect x="0.392857" y="0.392857" width="595.214" height="274.214" rx="12.1786" stroke="#D9D9D9" stroke-width="0.785714"/>
<g filter="url(#filter0_d_2262_8536)">
<rect x="218.786" y="57.75" width="159.5" height="159.5" rx="12.5714" fill="white"/>
<rect x="219.179" y="58.1429" width="158.714" height="158.714" rx="12.1786" stroke="#00E266" stroke-width="0.785714"/>
<path d="M258.395 177.755C258.943 179.076 260 180.134 261.321 180.682L261.171 181.044C261.855 181.328 262.605 181.485 263.391 181.485H265.017V181.092H268.27V181.485H271.522V181.092H274.774V181.485H278.027V181.092H281.279V181.485H284.532V181.092H287.784V181.485H289.41H291.036V181.092H294.289V181.485H297.541V181.092H300.794V181.485H304.046V181.092H307.298V181.485H310.551V181.092H313.803V181.485H315.429H315.822V181.092V179.402H315.429V176.023H315.822V172.644H315.429V169.265H315.822V167.575C315.822 166.895 315.958 166.247 316.203 165.656L315.84 165.506C316.388 164.184 317.445 163.127 318.766 162.579L318.917 162.942C319.508 162.697 320.155 162.562 320.836 162.562H322.695V162.169H326.412V162.562H330.129V162.169H333.846V162.562H335.704H336.097V162.169V160.479H335.704V157.1H336.097V153.721H335.704V150.342H336.097V146.963H335.704V143.584H336.097V140.204H335.704V136.825H336.097V133.446H335.704V130.067H336.097V128.378V126.688H335.704V123.309H336.097V119.93H335.704V116.551H336.097V113.171H335.704V109.792H336.097V106.413H335.704V103.034H336.097V99.655H335.704V96.2758H336.097V94.5863C336.097 93.8007 335.941 93.0506 335.657 92.3662L335.294 92.5167C334.746 91.1951 333.689 90.138 332.367 89.5899L332.518 89.2271C331.833 88.9433 331.083 88.7868 330.298 88.7868H328.625V89.1797H325.28V88.7868H321.934V89.1797H318.589V88.7868H315.244V89.1797H311.898V88.7868H308.553V89.1797H305.208V88.7868H301.862V89.1797H298.517V88.7868H296.844H295.172V89.1797H291.826V88.7868H288.481V89.1797H285.136V88.7868H281.79V89.1797H278.445V88.7868H275.1V89.1797H271.754V88.7868H268.409V89.1797H265.064V88.7868H263.391C262.605 88.7868 261.855 88.9433 261.171 89.2271L261.321 89.5899C260 90.138 258.943 91.1951 258.395 92.5167L258.032 92.3662C257.748 93.0506 257.591 93.8007 257.591 94.5863V96.2758H257.984V99.655H257.591V103.034H257.984V106.413H257.591V109.792H257.984V113.171H257.591V116.551H257.984V119.93H257.591V123.309H257.984V126.688H257.591V130.067H257.984V133.446H257.591V135.136V136.825H257.984V140.204H257.591V143.584H257.984V146.963H257.591V150.342H257.984V153.721H257.591V157.1H257.984V160.479H257.591V163.858H257.984V167.237H257.591V170.617H257.984V173.996H257.591V175.685C257.591 176.471 257.748 177.221 258.032 177.905L258.395 177.755Z" fill="#D9D9D9" fill-opacity="0.15" stroke="black" stroke-width="0.785714" stroke-dasharray="3.14 3.14"/>
<rect x="317.461" y="164.197" width="21.6264" height="21.6264" rx="3.14286" fill="black"/>
<path d="M334.053 175.808V179.736C334.053 179.931 333.975 180.119 333.837 180.257C333.699 180.395 333.512 180.473 333.316 180.473H322.513C322.317 180.473 322.13 180.395 321.992 180.257C321.854 180.119 321.776 179.931 321.776 179.736V175.808C321.776 175.612 321.854 175.425 321.992 175.287C322.13 175.149 322.317 175.071 322.513 175.071C322.708 175.071 322.895 175.149 323.033 175.287C323.172 175.425 323.249 175.612 323.249 175.808V178.999H332.58V175.808C332.58 175.612 332.657 175.425 332.795 175.287C332.933 175.149 333.121 175.071 333.316 175.071C333.512 175.071 333.699 175.149 333.837 175.287C333.975 175.425 334.053 175.612 334.053 175.808ZM325.98 171.909L327.178 170.713V175.808C327.178 176.003 327.255 176.19 327.394 176.328C327.532 176.467 327.719 176.544 327.914 176.544C328.11 176.544 328.297 176.467 328.435 176.328C328.573 176.19 328.651 176.003 328.651 175.808V170.713L329.849 171.911C329.917 171.979 329.998 172.034 330.088 172.071C330.178 172.108 330.273 172.127 330.37 172.127C330.467 172.127 330.563 172.108 330.653 172.071C330.742 172.034 330.824 171.979 330.892 171.911C330.961 171.842 331.015 171.761 331.052 171.671C331.089 171.582 331.108 171.486 331.108 171.389C331.108 171.292 331.089 171.196 331.052 171.107C331.015 171.017 330.961 170.936 330.892 170.867L328.437 168.412C328.368 168.343 328.287 168.289 328.197 168.252C328.108 168.214 328.012 168.195 327.915 168.195C327.818 168.195 327.722 168.214 327.633 168.252C327.543 168.289 327.462 168.343 327.393 168.412L324.938 170.867C324.869 170.936 324.815 171.017 324.778 171.107C324.741 171.196 324.722 171.292 324.722 171.389C324.722 171.585 324.8 171.772 324.938 171.911C325.076 172.049 325.264 172.127 325.46 172.127C325.655 172.127 325.843 172.049 325.981 171.911L325.98 171.909Z" fill="white"/>
<path d="M266.627 101.311C266.627 99.8177 267.838 98.6074 269.331 98.6074H277.44C278.933 98.6074 280.144 99.8177 280.144 101.311V109.421C280.144 110.914 278.933 112.124 277.44 112.124H269.331C267.838 112.124 266.627 110.914 266.627 109.421V101.311Z" fill="black"/>
<path d="M266.627 119.221C266.627 118.288 267.384 117.531 268.317 117.531H296.363H324.41C325.343 117.531 326.1 118.288 326.1 119.221C326.1 120.154 325.343 120.91 324.41 120.91H296.363H268.317C267.384 120.91 266.627 120.154 266.627 119.221Z" fill="black"/>
<path d="M266.627 128.006C266.627 127.073 267.384 126.316 268.317 126.316H324.41C325.343 126.316 326.1 127.073 326.1 128.006C326.1 128.939 325.343 129.696 324.41 129.696H268.317C267.384 129.696 266.627 128.939 266.627 128.006Z" fill="black"/>
<path d="M266.627 136.793C266.627 135.86 267.384 135.104 268.317 135.104H291.971C292.904 135.104 293.66 135.86 293.66 136.793C293.66 137.726 292.904 138.483 291.971 138.483H268.317C267.384 138.483 266.627 137.726 266.627 136.793Z" fill="black"/>
</g>
<rect x="418.357" y="218.82" width="14.1429" height="14.1429" rx="1.57143" fill="#00E266"/>
<path d="M425.134 226.186H421.893V225.597H425.134V222.355H425.723V225.597H428.964V226.186H425.723V229.427H425.134V226.186Z" fill="black"/>
<g filter="url(#filter1_d_2262_8536)">
<path d="M414.704 208.692L414.894 208.641L414.843 208.452L408.709 185.583L402.574 162.714C402.004 160.589 399.825 159.326 397.706 159.894L375.147 165.945L352.588 171.996C350.469 172.565 349.215 174.749 349.785 176.874L357.146 204.317L364.508 231.759C365.078 233.884 367.257 235.148 369.376 234.579L386.921 229.873L404.467 225.166L404.657 225.115L404.606 224.926L402.152 215.778C401.638 213.861 402.77 211.894 404.678 211.382L414.704 208.692Z" fill="white" stroke="black" stroke-width="0.392857"/>
<path d="M363.423 203.681C363.254 203.053 363.627 202.406 364.256 202.238L380.193 197.963C380.822 197.794 381.468 198.167 381.637 198.796C381.806 199.424 381.433 200.071 380.804 200.239L364.867 204.514C364.238 204.683 363.592 204.31 363.423 203.681Z" fill="black"/>
<path d="M361.833 197.759C361.665 197.131 362.038 196.484 362.666 196.316L400.46 186.178C401.089 186.009 401.736 186.382 401.904 187.011C402.073 187.64 401.7 188.286 401.071 188.455L363.277 198.592C362.648 198.761 362.002 198.388 361.833 197.759Z" fill="black"/>
<path d="M360.243 191.841C360.075 191.213 360.448 190.566 361.076 190.398L379.974 185.329L398.871 180.26C399.499 180.091 400.146 180.464 400.314 181.093C400.483 181.722 400.11 182.368 399.481 182.537L380.584 187.606L361.687 192.675C361.058 192.843 360.412 192.47 360.243 191.841Z" fill="black"/>
<rect x="346.683" y="178.991" width="31.0456" height="11.8619" rx="2.09421" transform="rotate(-15.0155 346.683 178.991)" fill="#F53739" stroke="black" stroke-width="0.196429"/>
<path d="M357.194 186.523L355.335 179.593L358.069 178.86C358.595 178.719 359.07 178.699 359.494 178.8C359.917 178.9 360.273 179.1 360.562 179.403C360.853 179.702 361.06 180.082 361.183 180.542C361.306 181.002 361.316 181.435 361.212 181.84C361.108 182.245 360.894 182.596 360.57 182.894C360.248 183.19 359.821 183.41 359.288 183.553L357.546 184.02L357.231 182.846L358.737 182.442C359.019 182.367 359.238 182.256 359.395 182.11C359.553 181.961 359.654 181.788 359.698 181.59C359.743 181.389 359.735 181.175 359.674 180.947C359.612 180.717 359.512 180.528 359.374 180.382C359.237 180.232 359.063 180.135 358.853 180.09C358.642 180.042 358.394 180.057 358.11 180.133L357.122 180.398L358.659 186.13L357.194 186.523ZM365.82 184.209L363.364 184.868L361.505 177.938L363.982 177.274C364.679 177.087 365.316 177.064 365.894 177.207C366.471 177.347 366.964 177.639 367.373 178.083C367.785 178.527 368.087 179.108 368.28 179.828C368.474 180.55 368.503 181.207 368.37 181.799C368.238 182.39 367.956 182.893 367.523 183.307C367.092 183.72 366.524 184.021 365.82 184.209ZM364.492 183.22L365.423 182.97C365.856 182.854 366.2 182.68 366.454 182.447C366.71 182.211 366.869 181.911 366.931 181.547C366.994 181.179 366.957 180.737 366.818 180.22C366.681 179.708 366.493 179.31 366.255 179.026C366.019 178.741 365.732 178.561 365.395 178.487C365.059 178.413 364.674 178.434 364.241 178.55L363.307 178.801L364.492 183.22ZM370.297 183.009L368.438 176.079L373.026 174.848L373.35 176.056L370.227 176.894L370.67 178.545L373.489 177.789L373.813 178.997L370.994 179.753L371.762 182.616L370.297 183.009Z" fill="white"/>
</g>
<path d="M416.939 211.338V216.174C416.939 218.506 416.013 220.743 414.364 222.392C412.715 224.041 410.478 224.968 408.146 224.968C405.814 224.968 403.577 224.041 401.928 222.392C400.279 220.743 399.353 218.506 399.353 216.174V214.855C399.353 214.272 399.584 213.713 399.997 213.301C400.409 212.888 400.968 212.657 401.551 212.657H403.749V209.579C403.749 208.996 403.981 208.437 404.393 208.025C404.806 207.612 405.365 207.381 405.948 207.381C406.531 207.381 407.09 207.612 407.502 208.025C407.914 208.437 408.146 208.996 408.146 209.579C408.146 208.996 408.378 208.437 408.79 208.025C409.202 207.612 409.761 207.381 410.344 207.381C410.927 207.381 411.487 207.612 411.899 208.025C412.311 208.437 412.543 208.996 412.543 209.579V211.338C412.543 210.755 412.774 210.196 413.187 209.783C413.599 209.371 414.158 209.14 414.741 209.14C415.324 209.14 415.883 209.371 416.296 209.783C416.708 210.196 416.939 210.755 416.939 211.338Z" fill="white"/>
<path d="M414.739 208.993C414.086 208.993 413.456 209.236 412.972 209.675C412.931 209.127 412.719 208.605 412.367 208.183C412.014 207.762 411.539 207.46 411.007 207.322C410.476 207.183 409.914 207.214 409.4 207.41C408.887 207.607 408.448 207.958 408.144 208.416C407.831 207.944 407.374 207.585 406.841 207.393C406.308 207.201 405.727 207.185 405.185 207.348C404.642 207.512 404.167 207.845 403.829 208.3C403.491 208.755 403.308 209.306 403.307 209.873V212.511H401.549C400.849 212.511 400.178 212.788 399.683 213.283C399.189 213.778 398.911 214.449 398.911 215.149V216.468C398.911 218.916 399.884 221.265 401.615 222.996C403.347 224.728 405.695 225.701 408.144 225.701C410.593 225.701 412.941 224.728 414.673 222.996C416.404 221.265 417.377 218.916 417.377 216.468V211.631C417.377 210.932 417.099 210.261 416.604 209.766C416.109 209.271 415.438 208.993 414.739 208.993ZM416.497 216.468C416.497 218.683 415.617 220.808 414.051 222.375C412.484 223.941 410.359 224.821 408.144 224.821C405.928 224.821 403.803 223.941 402.237 222.375C400.67 220.808 399.79 218.683 399.79 216.468V215.149C399.79 214.682 399.975 214.235 400.305 213.905C400.635 213.575 401.082 213.39 401.549 213.39H403.307V216.468C403.307 216.584 403.354 216.696 403.436 216.778C403.519 216.861 403.63 216.907 403.747 216.907C403.864 216.907 403.976 216.861 404.058 216.778C404.14 216.696 404.187 216.584 404.187 216.468V209.873C404.187 209.406 404.372 208.959 404.702 208.629C405.032 208.299 405.479 208.114 405.945 208.114C406.412 208.114 406.859 208.299 407.189 208.629C407.519 208.959 407.704 209.406 407.704 209.873V212.95C407.704 213.067 407.75 213.179 407.833 213.261C407.915 213.344 408.027 213.39 408.144 213.39C408.26 213.39 408.372 213.344 408.455 213.261C408.537 213.179 408.583 213.067 408.583 212.95V209.873C408.583 209.406 408.769 208.959 409.099 208.629C409.428 208.299 409.876 208.114 410.342 208.114C410.809 208.114 411.256 208.299 411.586 208.629C411.916 208.959 412.101 209.406 412.101 209.873V212.95C412.101 213.067 412.147 213.179 412.23 213.261C412.312 213.344 412.424 213.39 412.54 213.39C412.657 213.39 412.769 213.344 412.851 213.261C412.934 213.179 412.98 213.067 412.98 212.95V211.631C412.98 211.165 413.165 210.717 413.495 210.388C413.825 210.058 414.272 209.873 414.739 209.873C415.205 209.873 415.653 210.058 415.982 210.388C416.312 210.717 416.497 211.165 416.497 211.631V216.468Z" fill="black"/>
<defs>
<filter id="filter0_d_2262_8536" x="212.5" y="51.4643" width="172.071" height="172.071" filterUnits="userSpaceOnUse" color-interpolation-filters="sRGB">
<feFlood flood-opacity="0" result="BackgroundImageFix"/>
<feColorMatrix in="SourceAlpha" type="matrix" values="0 0 0 0 0 0 0 0 0 0 0 0 0 0 0 0 0 0 127 0" result="hardAlpha"/>
<feOffset/>
<feGaussianBlur stdDeviation="3.14286"/>
<feComposite in2="hardAlpha" operator="out"/>
<feColorMatrix type="matrix" values="0 0 0 0 0 0 0 0 0 0 0 0 0 0 0 0 0 0 0.15 0"/>
<feBlend mode="normal" in2="BackgroundImageFix" result="effect1_dropShadow_2262_8536"/>
<feBlend mode="normal" in="SourceGraphic" in2="effect1_dropShadow_2262_8536" result="shape"/>
</filter>
<filter id="filter1_d_2262_8536" x="343.912" y="156.418" width="74.3651" height="81.6373" filterUnits="userSpaceOnUse" color-interpolation-filters="sRGB">
<feFlood flood-opacity="0" result="BackgroundImageFix"/>
<feColorMatrix in="SourceAlpha" type="matrix" values="0 0 0 0 0 0 0 0 0 0 0 0 0 0 0 0 0 0 127 0" result="hardAlpha"/>
<feOffset/>
<feGaussianBlur stdDeviation="1.57143"/>
<feComposite in2="hardAlpha" operator="out"/>
<feColorMatrix type="matrix" values="0 0 0 0 0 0 0 0 0 0 0 0 0 0 0 0 0 0 0.25 0"/>
<feBlend mode="normal" in2="BackgroundImageFix" result="effect1_dropShadow_2262_8536"/>
<feBlend mode="normal" in="SourceGraphic" in2="effect1_dropShadow_2262_8536" result="shape"/>
</filter>
<linearGradient id="paint0_linear_2262_8536" x1="298" y1="0" x2="298" y2="275" gradientUnits="userSpaceOnUse">
<stop stop-color="#D9D9D9"/>
<stop offset="1" stop-color="white"/>
</linearGradient>
</defs>
</svg>
